<?xml version="1.0" encoding="utf-8"?>
<svg width="318" height="194" viewBox="0 0 318 194" fill="none" xmlns="http://www.w3.org/2000/svg">
  <defs>
    <linearGradient id="gradient_1" gradientUnits="userSpaceOnUse" x1="0" y1="92" x2="318" y2="92">
      <stop offset="0" stop-color="#1AA1FE" />
      <stop offset="1" stop-color="#781D95" />
    </linearGradient>
    <linearGradient id="gradient_2" gradientUnits="userSpaceOnUse" x1="-0" y1="92" x2="318" y2="92">
      <stop offset="0" stop-color="#70E5FC" />
      <stop offset="1" stop-color="#FB93F7" />
    </linearGradient>
    <clipPath id="clip_path_3">
      <rect width="178" height="161" rx="24" />
    </clipPath>
    <clipPath id="clip_path_4">
      <rect width="156.694" height="177.513" />
    </clipPath>
    <linearGradient id="gradient_5" gradientUnits="userSpaceOnUse" x1="0" y1="33" x2="66" y2="33">
      <stop offset="0" stop-color="#F37822" />
      <stop offset="1" stop-color="#FEC418" />
    </linearGradient>
    <linearGradient id="gradient_6" gradientUnits="userSpaceOnUse" x1="47" y1="0" x2="156" y2="50">
      <stop offset="0" stop-color="#1957BD" />
      <stop offset="1" stop-color="#4886BC" />
    </linearGradient>
    <linearGradient id="gradient_7" gradientUnits="userSpaceOnUse" x1="40" y1="20" x2="56" y2="34">
      <stop offset="0" stop-color="#3D629A" />
      <stop offset="0.601" stop-color="#1F457F" />
    </linearGradient>
    <clipPath id="clip_path_8">
      <rect width="64" height="36" />
    </clipPath>
    <linearGradient id="gradient_9" gradientUnits="userSpaceOnUse" x1="74.218" y1="4.941" x2="-26.715" y2="61.442">
      <stop offset="0" stop-color="#088453" />
      <stop offset="1" stop-color="#BEEEB9" />
    </linearGradient>
    <linearGradient id="gradient_10" gradientUnits="userSpaceOnUse" x1="4.971" y1="43.375" x2="74.036" y2="5.784">
      <stop offset="0" stop-color="#088453" />
      <stop offset="1" stop-color="#BEEEB9" />
    </linearGradient>
    <linearGradient id="gradient_11" gradientUnits="userSpaceOnUse" x1="0" y1="84.525" x2="179" y2="84.525">
      <stop offset="0" stop-color="#30BDFC" />
      <stop offset="0.539" stop-color="#6D4BDF" />
      <stop offset="0.932" stop-color="#E753FB" />
      <stop offset="1" stop-color="#BE49F3" />
    </linearGradient>
    <linearGradient id="gradient_12" gradientUnits="userSpaceOnUse" x1="38.648" y1="38.645" x2="6.635" y2="6.632">
      <stop offset="0" stop-color="#EF3739" />
      <stop offset="0.54" stop-color="#EF3739" />
      <stop offset="1" stop-color="#FF8C8B" />
    </linearGradient>
    <linearGradient id="gradient_13" gradientUnits="userSpaceOnUse" x1="25.36" y1="25.236" x2="7.193" y2="7.067">
      <stop offset="0" stop-color="#FFD2D2" />
      <stop offset="0.57" stop-color="#FFFFFF" />
      <stop offset="1" stop-color="#FFFFFF" />
    </linearGradient>
  </defs>
  <g transform="translate(0 2)">
    <g>
      <g fill="url(#gradient_1)" fill-rule="evenodd">
        <path d="M21.0175 0L296.982 0Q297.488 0 297.993 0.0256638Q298.498 0.0513276 299.001 0.102589Q299.504 0.153851 300.004 0.230577Q300.503 0.307304 300.998 0.409299Q301.494 0.511294 301.983 0.638293Q302.472 0.765292 302.955 0.916968Q303.437 1.06864 303.911 1.24461Q304.385 1.42057 304.849 1.62036Q305.314 1.82016 305.767 2.04327Q306.221 2.26638 306.663 2.51224Q307.104 2.75809 307.533 3.02605Q307.962 3.29402 308.376 3.58339Q308.791 3.87277 309.19 4.18282Q309.59 4.49287 309.973 4.82279Q310.356 5.15272 310.722 5.50166Q311.088 5.8506 311.435 6.21766Q311.783 6.58473 312.111 6.96896Q312.44 7.3532 312.749 7.75362Q313.057 8.15405 313.345 8.56962Q313.633 8.98519 313.9 9.41484Q314.166 9.8445 314.41 10.2871Q314.655 10.7297 314.876 11.1842Q315.098 11.6387 315.296 12.1038Q315.494 12.5689 315.668 13.0435Q315.843 13.518 315.993 14.0008Q316.143 14.4837 316.268 14.9735Q316.393 15.4633 316.493 15.9588Q316.594 16.4543 316.669 16.9543Q316.744 17.4543 316.793 17.9574Q316.843 18.4606 316.867 18.9656Q316.89 19.4706 316.889 19.9761Q316.887 20.4817 316.859 20.9865L309.023 165.174Q308.998 165.645 308.95 166.114Q308.902 166.584 308.832 167.05Q308.762 167.517 308.67 167.98Q308.577 168.442 308.464 168.9Q308.35 169.358 308.214 169.81Q308.079 170.262 307.922 170.707Q307.765 171.152 307.588 171.589Q307.41 172.026 307.212 172.454Q307.014 172.882 306.796 173.3Q306.577 173.719 306.34 174.126Q306.102 174.534 305.845 174.929Q305.588 175.325 305.313 175.708Q305.038 176.091 304.745 176.461Q304.451 176.831 304.141 177.186Q303.831 177.542 303.504 177.882Q303.177 178.222 302.835 178.546Q302.492 178.871 302.135 179.179Q301.777 179.487 301.406 179.777Q301.034 180.068 300.649 180.34Q300.264 180.613 299.866 180.867Q299.469 181.121 299.06 181.356Q298.651 181.591 298.231 181.806Q297.811 182.021 297.381 182.217Q296.952 182.412 296.514 182.586Q296.075 182.761 295.629 182.915Q295.183 183.068 294.73 183.201Q294.278 183.333 293.819 183.444Q293.36 183.555 292.897 183.643Q292.434 183.732 291.967 183.799Q291.5 183.866 291.03 183.911Q290.561 183.955 290.089 183.978Q289.618 184 289.146 184L28.8538 184Q28.382 184 27.9107 183.978Q27.4395 183.955 26.9698 183.911Q26.5002 183.866 26.0332 183.799Q25.5662 183.732 25.1028 183.643Q24.6395 183.555 24.1809 183.444Q23.7223 183.333 23.2695 183.201Q22.8167 183.068 22.3706 182.915Q21.9246 182.761 21.4863 182.586Q21.048 182.412 20.6185 182.217Q20.189 182.021 19.7692 181.806Q19.3494 181.591 18.9403 181.356Q18.5312 181.121 18.1337 180.867Q17.7362 180.613 17.3512 180.34Q16.9661 180.068 16.5944 179.777Q16.2227 179.487 15.8652 179.179Q15.5077 178.871 15.1652 178.546Q14.8227 178.222 14.4959 177.882Q14.1691 177.542 13.8588 177.186Q13.5485 176.831 13.2554 176.461Q12.9623 176.091 12.6871 175.708Q12.4118 175.325 12.155 174.929Q11.8982 174.534 11.6604 174.126Q11.4227 173.719 11.2045 173.3Q10.9863 172.882 10.7882 172.454Q10.59 172.026 10.4124 171.589Q10.2348 171.152 10.078 170.707Q9.92131 170.262 9.78584 169.81Q9.65037 169.358 9.53646 168.9Q9.42255 168.442 9.33046 167.98Q9.23837 167.517 9.1683 167.05Q9.09823 166.584 9.05034 166.114Q9.00245 165.645 8.97685 165.174L1.14057 20.9865Q1.11314 20.4817 1.11136 19.9761Q1.10959 19.4706 1.13348 18.9656Q1.15737 18.4606 1.20686 17.9574Q1.25636 17.4543 1.33133 16.9543Q1.4063 16.4543 1.50656 15.9588Q1.60682 15.4633 1.7321 14.9735Q1.85738 14.4837 2.00736 14.0008Q2.15734 13.518 2.33164 13.0435Q2.50594 12.5689 2.7041 12.1038Q2.90226 11.6387 3.12378 11.1842Q3.3453 10.7297 3.5896 10.2871Q3.8339 9.8445 4.10036 9.41485Q4.36682 8.98519 4.65474 8.56962Q4.94266 8.15405 5.25131 7.75363Q5.55995 7.3532 5.88853 6.96897Q6.2171 6.58473 6.56476 6.21767Q6.91241 5.8506 7.27825 5.50166Q7.64409 5.15272 8.02718 4.8228Q8.41026 4.49288 8.80959 4.18282Q9.20893 3.87277 9.62349 3.5834Q10.038 3.29402 10.4668 3.02605Q10.8955 2.75809 11.3372 2.51224Q11.779 2.26638 12.2327 2.04327Q12.6864 1.82016 13.1508 1.62037Q13.6152 1.42057 14.0891 1.24461Q14.5631 1.06865 15.0454 0.916969Q15.5277 0.765292 16.017 0.638293Q16.5064 0.511294 17.0016 0.409299Q17.4967 0.307305 17.9964 0.230578Q18.4962 0.153851 18.9991 0.102589Q19.5021 0.0513277 20.007 0.0256638Q20.5119 0 21.0175 0L21.0175 0Z" />
        <path d="M295.871 0L19.9062 0Q19.4007 0 18.8958 0.0256638Q18.3908 0.0513276 17.8879 0.102589Q17.3849 0.153851 16.8852 0.230577Q16.3855 0.307304 15.8903 0.409299Q15.3951 0.511294 14.9058 0.638293Q14.4164 0.765292 13.9342 0.916968Q13.4519 1.06864 12.9779 1.24461Q12.504 1.42057 12.0395 1.62036Q11.5751 1.82016 11.1214 2.04327Q10.6678 2.26638 10.226 2.51224Q9.78424 2.75809 9.35553 3.02605Q8.92681 3.29402 8.51225 3.58339Q8.09769 3.87277 7.69836 4.18282Q7.29902 4.49287 6.91594 4.8228Q6.53286 5.15272 6.16702 5.50166Q5.80118 5.8506 5.45352 6.21766Q5.10586 6.58473 4.77729 6.96897Q4.44872 7.3532 4.14007 7.75362Q3.83142 8.15405 3.5435 8.56962Q3.25558 8.98519 2.98912 9.41484Q2.72267 9.8445 2.47837 10.2871Q2.23406 10.7297 2.01255 11.1842Q1.79103 11.6387 1.59286 12.1038Q1.3947 12.5689 1.2204 13.0435Q1.0461 13.518 0.896122 14.0008Q0.746139 14.4837 0.620859 14.9735Q0.495578 15.4633 0.395322 15.9588Q0.295066 16.4543 0.220094 16.9543Q0.145122 17.4543 0.0956261 17.9574Q0.0461305 18.4606 0.0222392 18.9656Q-0.00165202 19.4706 0.000122683 19.9761Q0.00189738 20.4817 0.0293335 20.9865L7.86561 165.174Q7.89121 165.645 7.9391 166.114Q7.98699 166.584 8.05706 167.05Q8.12713 167.517 8.21922 167.98Q8.31132 168.442 8.42523 168.9Q8.53913 169.358 8.6746 169.81Q8.81007 170.262 8.9668 170.707Q9.12352 171.152 9.30115 171.589Q9.47878 172.026 9.67691 172.454Q9.87505 172.882 10.0932 173.3Q10.3114 173.719 10.5492 174.126Q10.787 174.534 11.0438 174.929Q11.3006 175.325 11.5758 175.708Q11.8511 176.091 12.1442 176.461Q12.4373 176.831 12.7476 177.186Q13.0579 177.542 13.3846 177.882Q13.7114 178.222 14.0539 178.546Q14.3965 178.871 14.754 179.179Q15.1115 179.487 15.4832 179.777Q15.8549 180.068 16.2399 180.34Q16.6249 180.613 17.0225 180.867Q17.42 181.121 17.8291 181.356Q18.2382 181.591 18.658 181.806Q19.0778 182.021 19.5073 182.217Q19.9368 182.412 20.3751 182.586Q20.8133 182.761 21.2594 182.915Q21.7054 183.068 22.1583 183.201Q22.6111 183.333 23.0697 183.444Q23.5283 183.555 23.9916 183.643Q24.4549 183.732 24.9219 183.799Q25.389 183.866 25.8586 183.911Q26.3283 183.955 26.7995 183.978Q27.2708 184 27.7425 184L288.035 184Q288.507 184 288.978 183.978Q289.449 183.955 289.919 183.911Q290.389 183.866 290.856 183.799Q291.323 183.732 291.786 183.643Q292.249 183.555 292.708 183.444Q293.166 183.333 293.619 183.201Q294.072 183.068 294.518 182.915Q294.964 182.761 295.402 182.586Q295.841 182.412 296.27 182.217Q296.7 182.021 297.12 181.806Q297.539 181.591 297.948 181.356Q298.358 181.121 298.755 180.867Q299.153 180.613 299.538 180.34Q299.923 180.068 300.294 179.777Q300.666 179.487 301.024 179.179Q301.381 178.871 301.724 178.546Q302.066 178.222 302.393 177.882Q302.72 177.542 303.03 177.186Q303.34 176.831 303.633 176.461Q303.926 176.091 304.202 175.708Q304.477 175.325 304.734 174.929Q304.991 174.534 305.228 174.126Q305.466 173.719 305.684 173.3Q305.902 172.882 306.101 172.454Q306.299 172.026 306.476 171.589Q306.654 171.152 306.811 170.707Q306.967 170.262 307.103 169.81Q307.238 169.358 307.352 168.9Q307.466 168.442 307.558 167.98Q307.65 167.517 307.72 167.05Q307.791 166.584 307.838 166.114Q307.886 165.645 307.912 165.174L315.748 20.9865Q315.776 20.4817 315.777 19.9761Q315.779 19.4706 315.755 18.9656Q315.731 18.4606 315.682 17.9574Q315.632 17.4543 315.557 16.9543Q315.482 16.4543 315.382 15.9588Q315.282 15.4633 315.157 14.9735Q315.031 14.4837 314.881 14.0008Q314.731 13.518 314.557 13.0435Q314.383 12.5689 314.185 12.1038Q313.986 11.6387 313.765 11.1842Q313.543 10.7297 313.299 10.2871Q313.055 9.8445 312.788 9.41484Q312.522 8.98519 312.234 8.56962Q311.946 8.15405 311.637 7.75363Q311.329 7.3532 311 6.96897Q310.672 6.58473 310.324 6.21766Q309.976 5.8506 309.61 5.50166Q309.245 5.15272 308.862 4.8228Q308.478 4.49287 308.079 4.18282Q307.68 3.87277 307.265 3.5834Q306.851 3.29402 306.422 3.02605Q305.993 2.75809 305.552 2.51224Q305.11 2.26638 304.656 2.04327Q304.202 1.82016 303.738 1.62036Q303.274 1.42057 302.8 1.24461Q302.326 1.06865 301.843 0.916969Q301.361 0.765292 300.872 0.638293Q300.382 0.511294 299.887 0.409299Q299.392 0.307305 298.892 0.230578Q298.393 0.153851 297.89 0.102589Q297.387 0.0513276 296.882 0.0256638Q296.377 0 295.871 0ZM9.08372 9.65593Q13.4935 5 19.9063 5L295.871 5Q302.284 5 306.694 9.65593Q311.104 14.3118 310.756 20.7152L302.919 164.903Q302.597 170.833 298.285 174.916Q293.974 179 288.035 179L27.7425 179Q21.8039 179 17.4922 174.916Q13.1805 170.833 12.8582 164.903L5.02197 20.7152Q4.67396 14.3119 9.08372 9.65593Z" fill="url(#gradient_2)" fill-rule="evenodd" />
      </g>
      <g clip-path="url(#clip_path_3)" transform="translate(10 19)">
        <g clip-path="url(#clip_path_4)" transform="matrix(0.999 -0.052 0.052 0.999 -4 -7)">
          <g transform="translate(-120.999 10)">
            <path d="M59.5972 25.9999L0 25.9999L15.8601 10.3838Q15.9449 10.3003 16.0337 10.221Q16.1225 10.1417 16.2151 10.0668Q16.3076 9.99185 16.4037 9.92153Q16.4998 9.85121 16.5992 9.78564Q16.6986 9.72007 16.801 9.6594Q16.9034 9.59874 17.0087 9.54312Q17.114 9.4875 17.2218 9.43707Q17.3297 9.38663 17.4399 9.3415Q17.5501 9.29636 17.6623 9.25663Q17.7745 9.2169 17.8886 9.18267Q18.0026 9.14844 18.1182 9.11979Q18.2337 9.09114 18.3505 9.06814Q18.4674 9.04513 18.5852 9.02784Q18.703 9.01054 18.8215 8.99898Q18.94 8.98743 19.0589 8.98164Q19.1778 8.97586 19.2969 8.97586Q19.4159 8.97586 19.5349 8.98164Q19.6538 8.98743 19.7723 8.99898Q19.8908 9.01054 20.0086 9.02784Q20.1264 9.04514 20.2432 9.06814Q20.36 9.09114 20.4756 9.11979Q20.5911 9.14844 20.7052 9.18267Q20.8192 9.2169 20.9315 9.25663Q21.0437 9.29636 21.1539 9.3415Q21.264 9.38663 21.3719 9.43707Q21.4798 9.4875 21.585 9.54312Q21.6903 9.59874 21.7928 9.6594Q21.8952 9.72007 21.9946 9.78564Q22.094 9.85121 22.19 9.92153Q22.2861 9.99185 22.3787 10.0668Q22.4712 10.1417 22.56 10.221Q22.6488 10.3003 22.7336 10.3838L27.0329 14.6169C28.4076 6.32374 35.6135 0 44.2965 0C53.9615 0 61.7965 7.83502 61.7965 17.5C61.7965 20.5848 60.9983 23.4832 59.5972 25.9999Z" fill="#FFFFFF" fill-rule="evenodd" fill-opacity="0.541" transform="translate(126.999 0)" />
            <path d="M0 33C0 14.7746 14.7746 0 33 0C51.2254 0 66 14.7746 66 33C66 51.2254 51.2254 66 33 66C14.7746 66 0 51.2254 0 33Z" fill="url(#gradient_5)" fill-rule="evenodd" transform="translate(136 49)" />
            <path d="M0 43C0 19.2518 33.5787 0 75 0C116.422 0 142.508 22.6994 154 43C165.492 63.3006 116.422 86 75 86C33.5787 86 0 66.7482 0 43Z" fill="url(#gradient_6)" fill-rule="evenodd" transform="translate(32 65)" />
            <path d="M0 50.5C16.4503 46.2284 29.374 32.2731 34.5562 26.5434C43.6087 16.5344 41.4833 20.0022 50.8505 15.3292C72.1297 4.71377 67.092 1.14923 81.0002 0C104.868 6.51229 126 29.237 126 50.4999C126 71.7628 103.39 88.9999 75.5001 88.9999C47.6097 88.9999 0 71.7629 0 50.5Z" fill="url(#gradient_7)" fill-rule="evenodd" transform="translate(135.999 71)" />
            <path d="M0 71.6711C0 46.0844 45.2193 0 101 0C142.627 35.7834 202 46.0844 202 71.6711C202 97.2579 156.781 118 101 118C45.2192 118 0 97.2579 0 71.6711Z" fill="#1D2B44" fill-rule="evenodd" transform="translate(0 85)" />
            <path d="M184.107 78.6003C179.611 46.606 134.713 -5.84742 89.3196 0.532227C61.7329 50.0375 8.72437 48.9349 0.627365 89.9809C-7.46963 131.027 64.6629 154.462 110.056 148.082C155.45 141.703 188.604 110.595 184.107 78.6003Z" fill="#1A1A1A" fill-rule="evenodd" transform="translate(120.872 70.019)" />
          </g>
        </g>
        <rect width="115" height="21" fill="#1A1A1A" fill-rule="evenodd" transform="translate(39 140)" />
      </g>
      <g transform="matrix(0.985 -0.174 0.174 0.985 192.422 44)">
        <g fill="#53C7FE">
          <path d="M92 0C96.4189 0 100 3.58112 100 8L100 65C100 69.4189 96.4189 73 92 73L8 73C3.58112 73 0 69.4189 0 65L0 8C0 3.58112 3.58112 0 8 0L92 0Z" />
          <path d="M100 8C100 3.58112 96.4189 0 92 0L8 0C3.58112 0 0 3.58112 0 8L0 65C0 69.4189 3.58112 73 8 73L92 73C96.4189 73 100 69.4189 100 65L100 8ZM8 7L92 7Q92.4147 7 92.7073 7.29267Q93 7.58533 93 8L93 65Q93 66 92 66L8 66Q7 66 7 65L7 8Q7 7 8 7Z" fill="#FFFFFF" fill-rule="evenodd" />
        </g>
        <g clip-path="url(#clip_path_8)" transform="translate(29 30)">
          <g transform="translate(0 4)">
            <path d="M31.5 0L63 32L0 32L31.5 0Z" fill="#2E81DB" fill-rule="evenodd" transform="translate(21 8)" />
            <path d="M31.5 0L63 32L0 32L31.5 0Z" fill="#1759A8" fill-rule="evenodd" />
          </g>
        </g>
        <path d="M0 7.5C0 3.35786 3.35786 0 7.5 0C11.6421 0 15 3.35786 15 7.5C15 11.6421 11.6421 15 7.5 15C3.35786 15 0 11.6421 0 7.5Z" fill="#FFFFFF" fill-rule="evenodd" transform="matrix(1 0 0 1 74 22)" />
      </g>
      <g transform="matrix(0.966 0.259 -0.259 0.966 225.811 109)">
        <g fill="url(#gradient_9)" fill-rule="evenodd" transform="matrix(1 0 -0 1 0 0)">
          <path d="M39.0944 5.92017e-05C29.3899 5.90571e-05 19.6885 0.258428 9.99008 0.77517C5.05516 1.06668 0.602466 5.16145 0.313123 9.81438C-0.325272 20.7541 0.01 28.7086 1.3419 39.6325C1.94585 44.2832 6.47202 48.5565 11.1842 49.0084C20.4723 49.8461 29.7765 50.2656 39.0967 50.2671C48.417 50.2686 57.7204 49.8491 67.007 49.0084C71.7215 48.5565 76.2453 44.2854 76.847 39.6393C78.1789 28.7154 78.5142 20.7609 77.8758 9.82117C77.5864 5.16371 73.136 1.06895 68.2011 0.781953C58.5058 0.25617 48.8036 -0.00446123 39.0944 5.92017e-05Z" />
          <path d="M9.99008 0.775168C19.6885 0.258427 29.3899 5.76551e-05 39.0944 5.77997e-05C48.8036 -0.00446263 58.5058 0.256169 68.2011 0.781952C73.136 1.06895 77.5864 5.16371 77.8758 9.82117C78.5142 20.7609 78.1789 28.7154 76.847 39.6393C76.2453 44.2854 71.7215 48.5565 67.007 49.0084C57.7204 49.8491 48.417 50.2686 39.0967 50.2671C29.7765 50.2656 20.4723 49.8461 11.1842 49.0084C6.47202 48.5565 1.94585 44.2832 1.3419 39.6325C0.0100003 28.7086 -0.325271 20.7541 0.313123 9.81438C0.602466 5.16145 5.05516 1.06668 9.99008 0.775168ZM10.2029 4.7695Q24.6441 4.00006 39.0944 4.00006L39.0963 4.00006Q53.5506 3.99333 67.9689 4.77521Q70.2453 4.90759 72.0567 6.59196Q73.7662 8.18148 73.8826 10.0542Q74.7054 24.1543 72.8801 39.1256Q72.6122 41.1944 70.7149 42.9961Q68.7957 44.8186 66.6464 45.0247Q52.8968 46.2694 39.0974 46.2671Q25.2966 46.2649 11.5661 45.0267Q9.39726 44.8187 7.47737 42.9949Q5.57781 41.1904 5.3125 39.1484Q3.48351 24.1475 4.30541 10.0626Q4.42256 8.17876 6.13283 6.58901Q7.94682 4.90284 10.2029 4.7695Z" fill="url(#gradient_10)" fill-rule="evenodd" />
        </g>
        <g transform="matrix(1 0 -0 1 23.598 13.788)">
          <g transform="matrix(1 0 -0 1 0 0)">
            <path d="M1.40368 9.57879C1.40368 9.57879 9.14359 5.70839 9.14359 5.70839C9.85199 5.35415 9.85199 4.33079 9.14359 3.97655C9.14359 3.97655 1.40368 0.106149 1.40368 0.106149C0.760872 -0.221851 0 0.250468 0 0.972068C0 0.972068 0 8.71287 0 8.71287C-9.53674e-07 9.43447 0.760872 9.89367 1.40368 9.57879C1.40368 9.57879 1.40368 9.57879 1.40368 9.57879L1.40368 9.57879Z" fill="#FFFFFF" fill-rule="evenodd" transform="matrix(1 0 -0 1 10.639 6.769)" />
            <path d="M28.0605 7.93066e-07C28.0605 7.93066e-07 2.89919 4.32013e-08 2.89919 4.32013e-08C1.31185 -4.10507e-09 -3.91006e-08 1.312 -8.68034e-08 2.91264C-8.68034e-08 2.91264 -6.04887e-07 20.2966 -6.04887e-07 20.2966C-6.52981e-07 21.9104 1.28561 23.2224 2.89919 23.2224C2.89919 23.2224 28.0736 23.2224 28.0736 23.2224C29.6609 23.2224 30.9728 21.9104 30.9728 20.2966C30.9728 20.2966 30.9728 2.91264 30.9728 2.91264C30.9596 1.312 29.674 8.41154e-07 28.0605 7.93066e-07C28.0605 7.93066e-07 28.0605 7.93066e-07 28.0605 7.93066e-07L28.0605 7.93066e-07ZM5.81153 20.3098C5.81153 20.8477 5.39173 21.2807 4.84076 21.2807C4.84076 21.2807 2.91234 21.2807 2.91234 21.2807C2.37448 21.2807 1.94157 20.8609 1.94157 20.3098C1.94157 20.3098 1.94157 18.3943 1.94157 18.3943C1.94157 17.8564 2.36136 17.4234 2.91234 17.4234C2.91234 17.4234 4.82764 17.4234 4.82764 17.4234C5.3655 17.4234 5.79841 17.8433 5.79841 18.3943C5.79841 18.3943 5.81153 20.3098 5.81153 20.3098L5.81153 20.3098C5.81153 20.3098 5.81153 20.3098 5.81153 20.3098ZM5.81142 12.569C5.81142 13.1069 5.39163 13.5399 4.84065 13.5399C4.84065 13.5399 2.91223 13.5399 2.91223 13.5399C2.37437 13.5399 1.94146 13.12 1.94146 12.569C1.94146 12.569 1.94146 10.6535 1.94146 10.6535C1.94146 10.1156 2.36126 9.68259 2.91223 9.68259C2.91223 9.68259 4.82753 9.68259 4.82753 9.68259C5.36539 9.68259 5.7983 10.1024 5.7983 10.6535C5.7983 10.6535 5.81142 12.569 5.81142 12.569L5.81142 12.569C5.81142 12.569 5.81142 12.569 5.81142 12.569ZM5.81153 4.82822C5.81153 5.36613 5.39173 5.79909 4.84076 5.79909C4.84076 5.79909 2.91234 5.79909 2.91234 5.79909C2.37448 5.79909 1.94157 5.37926 1.94157 4.82822C1.94157 4.82822 1.94157 2.9127 1.94157 2.9127C1.94157 2.37478 2.36136 1.94182 2.91234 1.94182C2.91234 1.94182 4.82764 1.94182 4.82764 1.94182C5.3655 1.94182 5.79841 2.36166 5.79841 2.9127C5.79841 2.9127 5.81153 4.82822 5.81153 4.82822L5.81153 4.82822C5.81153 4.82822 5.81153 4.82822 5.81153 4.82822ZM23.2197 21.2938L7.73985 21.2938L7.73985 1.94182L23.2197 1.94182L23.2197 21.2938L23.2197 21.2938L23.2197 21.2938ZM29.0181 20.3098C29.0181 20.8477 28.5983 21.2807 28.0473 21.2807C28.0473 21.2807 26.132 21.2807 26.132 21.2807C25.5941 21.2807 25.1612 20.8609 25.1612 20.3098C25.1612 20.3098 25.1612 18.3943 25.1612 18.3943C25.1612 17.8564 25.581 17.4234 26.132 17.4234C26.132 17.4234 28.0473 17.4234 28.0473 17.4234C28.5852 17.4234 29.0181 17.8433 29.0181 18.3943C29.0181 18.3943 29.0181 20.3098 29.0181 20.3098L29.0181 20.3098C29.0181 20.3098 29.0181 20.3098 29.0181 20.3098ZM29.0182 12.569C29.0182 13.1069 28.5984 13.5398 28.0474 13.5398C28.0474 13.5398 26.1321 13.5398 26.1321 13.5398C25.5943 13.5398 25.1613 13.12 25.1613 12.569C25.1613 12.569 25.1613 10.6534 25.1613 10.6534C25.1613 10.1155 25.5811 9.68257 26.1321 9.68257C26.1321 9.68257 28.0474 9.68257 28.0474 9.68257C28.5853 9.68257 29.0182 10.1024 29.0182 10.6534C29.0182 10.6534 29.0182 12.569 29.0182 12.569L29.0182 12.569C29.0182 12.569 29.0182 12.569 29.0182 12.569ZM29.0182 4.82822C29.0182 5.36614 28.5984 5.7991 28.0474 5.7991C28.0474 5.7991 26.1321 5.7991 26.1321 5.7991C25.5943 5.7991 25.1613 5.37926 25.1613 4.82822C25.1613 4.82822 25.1613 2.9127 25.1613 2.9127C25.1613 2.37478 25.5811 1.94182 26.1321 1.94182C26.1321 1.94182 28.0474 1.94182 28.0474 1.94182C28.5853 1.94182 29.0182 2.36166 29.0182 2.9127C29.0182 2.9127 29.0182 4.82822 29.0182 4.82822L29.0182 4.82822C29.0182 4.82822 29.0182 4.82822 29.0182 4.82822Z" fill="#FFFFFF" transform="matrix(1 0 -0 1 0 0)" />
          </g>
        </g>
      </g>
      <g transform="translate(70 10)">
        <g fill="url(#gradient_11)" fill-rule="evenodd">
          <path d="M0 85C0 38.0558 40.0705 0 89.5 0C138.929 0 179 38.0558 179 85C179 131.944 138.929 170 89.5 170C40.0705 170 0 131.944 0 85Z" />
          <path d="M89.5 0C40.0705 0 0 38.0558 0 85C0 131.944 40.0705 170 89.5 170C138.929 170 179 131.944 179 85C179 38.0558 138.929 0 89.5 0ZM32.4117 138.578Q9 116.344 9 85Q9 53.6564 32.4117 31.4218Q56.0206 9 89.5 9.00001Q122.979 9 146.588 31.4218Q170 53.6564 170 85Q170 116.344 146.588 138.578Q122.979 161 89.5 161Q56.0206 161 32.4117 138.578Z" fill="#1A1A1A" fill-rule="evenodd" />
        </g>
        <line x1="0" y1="73.097" x2="42.663" y2="0" fill="none" stroke-width="7" stroke="#1A1A1A" stroke-linecap="square" transform="translate(63.387 10.131)" />
        <line x1="0" y1="73.097" x2="42.663" y2="0" fill="none" stroke-width="7" stroke="#1A1A1A" stroke-linecap="square" transform="translate(72.982 85.764)" />
        <g fill="#1A1A1A" fill-rule="evenodd" transform="translate(58.5 59.503)">
          <path d="M15.5 0L46.5 0L62 25.497L46.5 50.9939L15.5 50.9939L0 25.497L15.5 0Z" />
          <path d="M19.4366 7L8.19198 25.497L19.4366 43.9939L42.5635 43.9939L53.8081 25.497L42.5635 7L19.4366 7ZM46.5 0L62 25.497L46.5 50.9939L15.5 50.9939L0 25.497L15.5 0L46.5 0Z" fill="#1A1A1A" fill-rule="evenodd" />
        </g>
        <line x1="0" y1="0.95" x2="88" y2="0.95" fill="none" stroke-width="7" stroke="#1A1A1A" stroke-linecap="square" transform="translate(78 61.732)" />
        <line x1="0" y1="0.95" x2="88" y2="0.95" fill="none" stroke-width="7" stroke="#1A1A1A" stroke-linecap="square" transform="translate(13 106.369)" />
        <line x1="0" y1="0" x2="42.663" y2="73.097" fill="none" stroke-width="7" stroke="#1A1A1A" stroke-linecap="square" transform="translate(104.477 64.627)" />
        <line x1="0" y1="0" x2="42.663" y2="73.097" fill="none" stroke-width="7" stroke="#1A1A1A" stroke-linecap="square" transform="translate(31.858 32.275)" />
      </g>
      <g transform="translate(235 5)">
        <path d="M22.6416 8.96293e-06C13.4851 -0.00117414 5.22956 5.51369 1.72471 13.9729C-1.78014 22.4321 0.155944 32.1697 6.63013 38.6448C13.1043 45.1198 22.8415 47.0572 31.3011 43.5534C39.7607 40.0496 45.2766 31.7947 45.2766 22.6382C45.2766 10.1366 35.143 0.00162229 22.6416 0C22.6416 0 22.6416 8.96293e-06 22.6416 8.96293e-06Z" fill="url(#gradient_12)" fill-rule="evenodd" />
        <path d="M27.7717 1.39619C27.7721 0.965943 27.5739 0.559645 27.2347 0.295051C26.8955 0.0304651 26.4531 -0.0628123 26.036 0.0422602C26.036 0.0422602 10.6199 3.91907 10.6199 3.91907C9.99848 4.07414 9.56247 4.63249 9.56263 5.273C9.56263 5.273 9.56263 21.2766 9.56263 21.2766C8.50816 20.7701 7.35202 20.511 6.18226 20.5188C2.76954 20.5188 0 22.5952 0 25.1533C0 27.7114 2.76954 29.7879 6.18226 29.7879C9.59499 29.7879 12.3498 27.7144 12.3498 25.1533C12.3498 25.1152 12.3498 25.0741 12.3498 25.0359C12.3498 25.0359 12.3498 9.5874 12.3498 9.5874L24.9787 6.41253C24.9787 6.41253 24.9787 17.4027 24.9787 17.4027C23.9224 16.8954 22.7642 16.6362 21.5924 16.645C18.1767 16.645 15.4101 18.7185 15.4101 21.2766C15.4101 23.8347 18.1768 25.9111 21.5924 25.9111C25.0081 25.9111 27.76 23.8376 27.76 21.2766C27.7747 21.2384 27.7717 21.1972 27.7717 21.1591C27.7717 21.1591 27.7717 1.39619 27.7717 1.39619Z" fill="url(#gradient_13)" fill-rule="evenodd" transform="translate(8 8)" />
      </g>
    </g>
  </g>
</svg>