<?xml version="1.0" encoding="utf-8"?>
<svg width="318" height="246" viewBox="0 0 318 246" fill="none" xmlns="http://www.w3.org/2000/svg">
  <defs>
    <linearGradient id="gradient_1" gradientUnits="userSpaceOnUse" x1="0" y1="92" x2="318" y2="92">
      <stop offset="0" stop-color="#1AA1FE" />
      <stop offset="1" stop-color="#781D95" />
    </linearGradient>
    <linearGradient id="gradient_2" gradientUnits="userSpaceOnUse" x1="-0" y1="92" x2="318" y2="92">
      <stop offset="0" stop-color="#70E5FC" />
      <stop offset="1" stop-color="#FB93F7" />
    </linearGradient>
    <clipPath id="clip_path_3">
      <rect width="178" height="161" rx="24" />
    </clipPath>
    <clipPath id="clip_path_4">
      <rect width="156.694" height="177.513" />
    </clipPath>
    <linearGradient id="gradient_5" gradientUnits="userSpaceOnUse" x1="0" y1="33" x2="66" y2="33">
      <stop offset="0" stop-color="#F37822" />
      <stop offset="1" stop-color="#FEC418" />
    </linearGradient>
    <linearGradient id="gradient_6" gradientUnits="userSpaceOnUse" x1="47" y1="0" x2="156" y2="50">
      <stop offset="0" stop-color="#1957BD" />
      <stop offset="1" stop-color="#4886BC" />
    </linearGradient>
    <linearGradient id="gradient_7" gradientUnits="userSpaceOnUse" x1="40" y1="20" x2="56" y2="34">
      <stop offset="0" stop-color="#3D629A" />
      <stop offset="0.601" stop-color="#1F457F" />
    </linearGradient>
    <clipPath id="clip_path_8">
      <rect width="64" height="36" />
    </clipPath>
    <linearGradient id="gradient_9" gradientUnits="userSpaceOnUse" x1="74.218" y1="4.941" x2="-26.715" y2="61.442">
      <stop offset="0" stop-color="#088453" />
      <stop offset="1" stop-color="#BEEEB9" />
    </linearGradient>
    <linearGradient id="gradient_10" gradientUnits="userSpaceOnUse" x1="4.971" y1="43.375" x2="74.036" y2="5.784">
      <stop offset="0" stop-color="#088453" />
      <stop offset="1" stop-color="#BEEEB9" />
    </linearGradient>
    <linearGradient id="gradient_11" gradientUnits="userSpaceOnUse" x1="0" y1="84.525" x2="179" y2="84.525">
      <stop offset="0" stop-color="#30BDFC" />
      <stop offset="0.539" stop-color="#6D4BDF" />
      <stop offset="0.932" stop-color="#E753FB" />
      <stop offset="1" stop-color="#BE49F3" />
    </linearGradient>
    <linearGradient id="gradient_12" gradientUnits="userSpaceOnUse" x1="38.648" y1="38.645" x2="6.635" y2="6.632">
      <stop offset="0" stop-color="#EF3739" />
      <stop offset="0.54" stop-color="#EF3739" />
      <stop offset="1" stop-color="#FF8C8B" />
    </linearGradient>
    <linearGradient id="gradient_13" gradientUnits="userSpaceOnUse" x1="25.36" y1="25.236" x2="7.193" y2="7.067">
      <stop offset="0" stop-color="#FFD2D2" />
      <stop offset="0.57" stop-color="#FFFFFF" />
      <stop offset="1" stop-color="#FFFFFF" />
    </linearGradient>
    <linearGradient id="gradient_14" gradientUnits="userSpaceOnUse" x1="88.886" y1="0" x2="88.886" y2="32.167">
      <stop offset="0" stop-color="#65D7FF" />
      <stop offset="1" stop-color="#0088FF" />
    </linearGradient>
  </defs>
  <g transform="translate(0 2)">
    <g>
      <g fill="url(#gradient_1)" fill-rule="evenodd">
        <path d="M21.0175 0L296.982 0Q297.488 0 297.993 0.0256638Q298.498 0.0513276 299.001 0.102589Q299.504 0.153851 300.004 0.230577Q300.503 0.307304 300.998 0.409299Q301.494 0.511294 301.983 0.638293Q302.472 0.765292 302.955 0.916968Q303.437 1.06864 303.911 1.24461Q304.385 1.42057 304.849 1.62036Q305.314 1.82016 305.767 2.04327Q306.221 2.26638 306.663 2.51224Q307.104 2.75809 307.533 3.02605Q307.962 3.29402 308.376 3.58339Q308.791 3.87277 309.19 4.18282Q309.59 4.49287 309.973 4.82279Q310.356 5.15272 310.722 5.50166Q311.088 5.8506 311.435 6.21766Q311.783 6.58473 312.111 6.96896Q312.44 7.3532 312.749 7.75362Q313.057 8.15405 313.345 8.56962Q313.633 8.98519 313.9 9.41484Q314.166 9.8445 314.41 10.2871Q314.655 10.7297 314.876 11.1842Q315.098 11.6387 315.296 12.1038Q315.494 12.5689 315.668 13.0435Q315.843 13.518 315.993 14.0008Q316.143 14.4837 316.268 14.9735Q316.393 15.4633 316.493 15.9588Q316.594 16.4543 316.669 16.9543Q316.744 17.4543 316.793 17.9574Q316.843 18.4606 316.867 18.9656Q316.89 19.4706 316.889 19.9761Q316.887 20.4817 316.859 20.9865L309.023 165.174Q308.998 165.645 308.95 166.114Q308.902 166.584 308.832 167.05Q308.762 167.517 308.67 167.98Q308.577 168.442 308.464 168.9Q308.35 169.358 308.214 169.81Q308.079 170.262 307.922 170.707Q307.765 171.152 307.588 171.589Q307.41 172.026 307.212 172.454Q307.014 172.882 306.796 173.3Q306.577 173.719 306.34 174.126Q306.102 174.534 305.845 174.929Q305.588 175.325 305.313 175.708Q305.038 176.091 304.745 176.461Q304.451 176.831 304.141 177.186Q303.831 177.542 303.504 177.882Q303.177 178.222 302.835 178.546Q302.492 178.871 302.135 179.179Q301.777 179.487 301.406 179.777Q301.034 180.068 300.649 180.34Q300.264 180.613 299.866 180.867Q299.469 181.121 299.06 181.356Q298.651 181.591 298.231 181.806Q297.811 182.021 297.381 182.217Q296.952 182.412 296.514 182.586Q296.075 182.761 295.629 182.915Q295.183 183.068 294.73 183.201Q294.278 183.333 293.819 183.444Q293.36 183.555 292.897 183.643Q292.434 183.732 291.967 183.799Q291.5 183.866 291.03 183.911Q290.561 183.955 290.089 183.978Q289.618 184 289.146 184L28.8538 184Q28.382 184 27.9107 183.978Q27.4395 183.955 26.9698 183.911Q26.5002 183.866 26.0332 183.799Q25.5662 183.732 25.1028 183.643Q24.6395 183.555 24.1809 183.444Q23.7223 183.333 23.2695 183.201Q22.8167 183.068 22.3706 182.915Q21.9246 182.761 21.4863 182.586Q21.048 182.412 20.6185 182.217Q20.189 182.021 19.7692 181.806Q19.3494 181.591 18.9403 181.356Q18.5312 181.121 18.1337 180.867Q17.7362 180.613 17.3512 180.34Q16.9661 180.068 16.5944 179.777Q16.2227 179.487 15.8652 179.179Q15.5077 178.871 15.1652 178.546Q14.8227 178.222 14.4959 177.882Q14.1691 177.542 13.8588 177.186Q13.5485 176.831 13.2554 176.461Q12.9623 176.091 12.6871 175.708Q12.4118 175.325 12.155 174.929Q11.8982 174.534 11.6604 174.126Q11.4227 173.719 11.2045 173.3Q10.9863 172.882 10.7882 172.454Q10.59 172.026 10.4124 171.589Q10.2348 171.152 10.078 170.707Q9.92131 170.262 9.78584 169.81Q9.65037 169.358 9.53646 168.9Q9.42255 168.442 9.33046 167.98Q9.23837 167.517 9.1683 167.05Q9.09823 166.584 9.05034 166.114Q9.00245 165.645 8.97685 165.174L1.14057 20.9865Q1.11314 20.4817 1.11136 19.9761Q1.10959 19.4706 1.13348 18.9656Q1.15737 18.4606 1.20686 17.9574Q1.25636 17.4543 1.33133 16.9543Q1.4063 16.4543 1.50656 15.9588Q1.60682 15.4633 1.7321 14.9735Q1.85738 14.4837 2.00736 14.0008Q2.15734 13.518 2.33164 13.0435Q2.50594 12.5689 2.7041 12.1038Q2.90226 11.6387 3.12378 11.1842Q3.3453 10.7297 3.5896 10.2871Q3.8339 9.8445 4.10036 9.41485Q4.36682 8.98519 4.65474 8.56962Q4.94266 8.15405 5.25131 7.75363Q5.55995 7.3532 5.88853 6.96897Q6.2171 6.58473 6.56476 6.21767Q6.91241 5.8506 7.27825 5.50166Q7.64409 5.15272 8.02718 4.8228Q8.41026 4.49288 8.80959 4.18282Q9.20893 3.87277 9.62349 3.5834Q10.038 3.29402 10.4668 3.02605Q10.8955 2.75809 11.3372 2.51224Q11.779 2.26638 12.2327 2.04327Q12.6864 1.82016 13.1508 1.62037Q13.6152 1.42057 14.0891 1.24461Q14.5631 1.06865 15.0454 0.916969Q15.5277 0.765292 16.017 0.638293Q16.5064 0.511294 17.0016 0.409299Q17.4967 0.307305 17.9964 0.230578Q18.4962 0.153851 18.9991 0.102589Q19.5021 0.0513277 20.007 0.0256638Q20.5119 0 21.0175 0L21.0175 0Z" />
        <path d="M295.871 0L19.9062 0Q19.4007 0 18.8958 0.0256638Q18.3908 0.0513276 17.8879 0.102589Q17.3849 0.153851 16.8852 0.230577Q16.3855 0.307304 15.8903 0.409299Q15.3951 0.511294 14.9058 0.638293Q14.4164 0.765292 13.9342 0.916968Q13.4519 1.06864 12.9779 1.24461Q12.504 1.42057 12.0395 1.62036Q11.5751 1.82016 11.1214 2.04327Q10.6678 2.26638 10.226 2.51224Q9.78424 2.75809 9.35553 3.02605Q8.92681 3.29402 8.51225 3.58339Q8.09769 3.87277 7.69836 4.18282Q7.29902 4.49287 6.91594 4.8228Q6.53286 5.15272 6.16702 5.50166Q5.80118 5.8506 5.45352 6.21766Q5.10586 6.58473 4.77729 6.96897Q4.44872 7.3532 4.14007 7.75362Q3.83142 8.15405 3.5435 8.56962Q3.25558 8.98519 2.98912 9.41484Q2.72267 9.8445 2.47837 10.2871Q2.23406 10.7297 2.01255 11.1842Q1.79103 11.6387 1.59286 12.1038Q1.3947 12.5689 1.2204 13.0435Q1.0461 13.518 0.896122 14.0008Q0.746139 14.4837 0.620859 14.9735Q0.495578 15.4633 0.395322 15.9588Q0.295066 16.4543 0.220094 16.9543Q0.145122 17.4543 0.0956261 17.9574Q0.0461305 18.4606 0.0222392 18.9656Q-0.00165202 19.4706 0.000122683 19.9761Q0.00189738 20.4817 0.0293335 20.9865L7.86561 165.174Q7.89121 165.645 7.9391 166.114Q7.98699 166.584 8.05706 167.05Q8.12713 167.517 8.21922 167.98Q8.31132 168.442 8.42523 168.9Q8.53913 169.358 8.6746 169.81Q8.81007 170.262 8.9668 170.707Q9.12352 171.152 9.30115 171.589Q9.47878 172.026 9.67691 172.454Q9.87505 172.882 10.0932 173.3Q10.3114 173.719 10.5492 174.126Q10.787 174.534 11.0438 174.929Q11.3006 175.325 11.5758 175.708Q11.8511 176.091 12.1442 176.461Q12.4373 176.831 12.7476 177.186Q13.0579 177.542 13.3846 177.882Q13.7114 178.222 14.0539 178.546Q14.3965 178.871 14.754 179.179Q15.1115 179.487 15.4832 179.777Q15.8549 180.068 16.2399 180.34Q16.6249 180.613 17.0225 180.867Q17.42 181.121 17.8291 181.356Q18.2382 181.591 18.658 181.806Q19.0778 182.021 19.5073 182.217Q19.9368 182.412 20.3751 182.586Q20.8133 182.761 21.2594 182.915Q21.7054 183.068 22.1583 183.201Q22.6111 183.333 23.0697 183.444Q23.5283 183.555 23.9916 183.643Q24.4549 183.732 24.9219 183.799Q25.389 183.866 25.8586 183.911Q26.3283 183.955 26.7995 183.978Q27.2708 184 27.7425 184L288.035 184Q288.507 184 288.978 183.978Q289.449 183.955 289.919 183.911Q290.389 183.866 290.856 183.799Q291.323 183.732 291.786 183.643Q292.249 183.555 292.708 183.444Q293.166 183.333 293.619 183.201Q294.072 183.068 294.518 182.915Q294.964 182.761 295.402 182.586Q295.841 182.412 296.27 182.217Q296.7 182.021 297.12 181.806Q297.539 181.591 297.948 181.356Q298.358 181.121 298.755 180.867Q299.153 180.613 299.538 180.34Q299.923 180.068 300.294 179.777Q300.666 179.487 301.024 179.179Q301.381 178.871 301.724 178.546Q302.066 178.222 302.393 177.882Q302.72 177.542 303.03 177.186Q303.34 176.831 303.633 176.461Q303.926 176.091 304.202 175.708Q304.477 175.325 304.734 174.929Q304.991 174.534 305.228 174.126Q305.466 173.719 305.684 173.3Q305.902 172.882 306.101 172.454Q306.299 172.026 306.476 171.589Q306.654 171.152 306.811 170.707Q306.967 170.262 307.103 169.81Q307.238 169.358 307.352 168.9Q307.466 168.442 307.558 167.98Q307.65 167.517 307.72 167.05Q307.791 166.584 307.838 166.114Q307.886 165.645 307.912 165.174L315.748 20.9865Q315.776 20.4817 315.777 19.9761Q315.779 19.4706 315.755 18.9656Q315.731 18.4606 315.682 17.9574Q315.632 17.4543 315.557 16.9543Q315.482 16.4543 315.382 15.9588Q315.282 15.4633 315.157 14.9735Q315.031 14.4837 314.881 14.0008Q314.731 13.518 314.557 13.0435Q314.383 12.5689 314.185 12.1038Q313.986 11.6387 313.765 11.1842Q313.543 10.7297 313.299 10.2871Q313.055 9.8445 312.788 9.41484Q312.522 8.98519 312.234 8.56962Q311.946 8.15405 311.637 7.75363Q311.329 7.3532 311 6.96897Q310.672 6.58473 310.324 6.21766Q309.976 5.8506 309.61 5.50166Q309.245 5.15272 308.862 4.8228Q308.478 4.49287 308.079 4.18282Q307.68 3.87277 307.265 3.5834Q306.851 3.29402 306.422 3.02605Q305.993 2.75809 305.552 2.51224Q305.11 2.26638 304.656 2.04327Q304.202 1.82016 303.738 1.62036Q303.274 1.42057 302.8 1.24461Q302.326 1.06865 301.843 0.916969Q301.361 0.765292 300.872 0.638293Q300.382 0.511294 299.887 0.409299Q299.392 0.307305 298.892 0.230578Q298.393 0.153851 297.89 0.102589Q297.387 0.0513276 296.882 0.0256638Q296.377 0 295.871 0ZM9.08372 9.65593Q13.4935 5 19.9063 5L295.871 5Q302.284 5 306.694 9.65593Q311.104 14.3118 310.756 20.7152L302.919 164.903Q302.597 170.833 298.285 174.916Q293.974 179 288.035 179L27.7425 179Q21.8039 179 17.4922 174.916Q13.1805 170.833 12.8582 164.903L5.02197 20.7152Q4.67396 14.3119 9.08372 9.65593Z" fill="url(#gradient_2)" fill-rule="evenodd" />
      </g>
      <g clip-path="url(#clip_path_3)" transform="translate(10 19)">
        <g clip-path="url(#clip_path_4)" transform="matrix(0.999 -0.052 0.052 0.999 -4 -7)">
          <g transform="translate(-120.999 10)">
            <path d="M59.5972 25.9999L0 25.9999L15.8601 10.3838Q15.9449 10.3003 16.0337 10.221Q16.1225 10.1417 16.2151 10.0668Q16.3076 9.99185 16.4037 9.92153Q16.4998 9.85121 16.5992 9.78564Q16.6986 9.72007 16.801 9.6594Q16.9034 9.59874 17.0087 9.54312Q17.114 9.4875 17.2218 9.43707Q17.3297 9.38663 17.4399 9.3415Q17.5501 9.29636 17.6623 9.25663Q17.7745 9.2169 17.8886 9.18267Q18.0026 9.14844 18.1182 9.11979Q18.2337 9.09114 18.3505 9.06814Q18.4674 9.04513 18.5852 9.02784Q18.703 9.01054 18.8215 8.99898Q18.94 8.98743 19.0589 8.98164Q19.1778 8.97586 19.2969 8.97586Q19.4159 8.97586 19.5349 8.98164Q19.6538 8.98743 19.7723 8.99898Q19.8908 9.01054 20.0086 9.02784Q20.1264 9.04514 20.2432 9.06814Q20.36 9.09114 20.4756 9.11979Q20.5911 9.14844 20.7052 9.18267Q20.8192 9.2169 20.9315 9.25663Q21.0437 9.29636 21.1539 9.3415Q21.264 9.38663 21.3719 9.43707Q21.4798 9.4875 21.585 9.54312Q21.6903 9.59874 21.7928 9.6594Q21.8952 9.72007 21.9946 9.78564Q22.094 9.85121 22.19 9.92153Q22.2861 9.99185 22.3787 10.0668Q22.4712 10.1417 22.56 10.221Q22.6488 10.3003 22.7336 10.3838L27.0329 14.6169C28.4076 6.32374 35.6135 0 44.2965 0C53.9615 0 61.7965 7.83502 61.7965 17.5C61.7965 20.5848 60.9983 23.4832 59.5972 25.9999Z" fill="#FFFFFF" fill-rule="evenodd" fill-opacity="0.541" transform="translate(126.999 0)" />
            <path d="M0 33C0 14.7746 14.7746 0 33 0C51.2254 0 66 14.7746 66 33C66 51.2254 51.2254 66 33 66C14.7746 66 0 51.2254 0 33Z" fill="url(#gradient_5)" fill-rule="evenodd" transform="translate(136 49)" />
            <path d="M0 43C0 19.2518 33.5787 0 75 0C116.422 0 142.508 22.6994 154 43C165.492 63.3006 116.422 86 75 86C33.5787 86 0 66.7482 0 43Z" fill="url(#gradient_6)" fill-rule="evenodd" transform="translate(32 65)" />
            <path d="M0 50.5C16.4503 46.2284 29.374 32.2731 34.5562 26.5434C43.6087 16.5344 41.4833 20.0022 50.8505 15.3292C72.1297 4.71377 67.092 1.14923 81.0002 0C104.868 6.51229 126 29.237 126 50.4999C126 71.7628 103.39 88.9999 75.5001 88.9999C47.6097 88.9999 0 71.7629 0 50.5Z" fill="url(#gradient_7)" fill-rule="evenodd" transform="translate(135.999 71)" />
            <path d="M0 71.6711C0 46.0844 45.2193 0 101 0C142.627 35.7834 202 46.0844 202 71.6711C202 97.2579 156.781 118 101 118C45.2192 118 0 97.2579 0 71.6711Z" fill="#1D2B44" fill-rule="evenodd" transform="translate(0 85)" />
            <path d="M184.107 78.6003C179.611 46.606 134.713 -5.84742 89.3196 0.532227C61.7329 50.0375 8.72437 48.9349 0.627365 89.9809C-7.46963 131.027 64.6629 154.462 110.056 148.082C155.45 141.703 188.604 110.595 184.107 78.6003Z" fill="#1A1A1A" fill-rule="evenodd" transform="translate(120.872 70.019)" />
          </g>
        </g>
        <rect width="115" height="21" fill="#1A1A1A" fill-rule="evenodd" transform="translate(39 140)" />
      </g>
      <g transform="matrix(0.985 -0.174 0.174 0.985 192.422 44)">
        <g fill="#53C7FE">
          <path d="M92 0C96.4189 0 100 3.58112 100 8L100 65C100 69.4189 96.4189 73 92 73L8 73C3.58112 73 0 69.4189 0 65L0 8C0 3.58112 3.58112 0 8 0L92 0Z" />
          <path d="M100 8C100 3.58112 96.4189 0 92 0L8 0C3.58112 0 0 3.58112 0 8L0 65C0 69.4189 3.58112 73 8 73L92 73C96.4189 73 100 69.4189 100 65L100 8ZM8 7L92 7Q92.4147 7 92.7073 7.29267Q93 7.58533 93 8L93 65Q93 66 92 66L8 66Q7 66 7 65L7 8Q7 7 8 7Z" fill="#FFFFFF" fill-rule="evenodd" />
        </g>
        <g clip-path="url(#clip_path_8)" transform="translate(29 30)">
          <g transform="translate(0 4)">
            <path d="M31.5 0L63 32L0 32L31.5 0Z" fill="#2E81DB" fill-rule="evenodd" transform="translate(21 8)" />
            <path d="M31.5 0L63 32L0 32L31.5 0Z" fill="#1759A8" fill-rule="evenodd" />
          </g>
        </g>
        <path d="M0 7.5C0 3.35786 3.35786 0 7.5 0C11.6421 0 15 3.35786 15 7.5C15 11.6421 11.6421 15 7.5 15C3.35786 15 0 11.6421 0 7.5Z" fill="#FFFFFF" fill-rule="evenodd" transform="matrix(1 0 0 1 74 22)" />
      </g>
      <g transform="matrix(0.966 0.259 -0.259 0.966 225.811 109)">
        <g fill="url(#gradient_9)" fill-rule="evenodd" transform="matrix(1 0 -0 1 0 0)">
          <path d="M39.0944 5.92017e-05C29.3899 5.90571e-05 19.6885 0.258428 9.99008 0.77517C5.05516 1.06668 0.602466 5.16145 0.313123 9.81438C-0.325272 20.7541 0.01 28.7086 1.3419 39.6325C1.94585 44.2832 6.47202 48.5565 11.1842 49.0084C20.4723 49.8461 29.7765 50.2656 39.0967 50.2671C48.417 50.2686 57.7204 49.8491 67.007 49.0084C71.7215 48.5565 76.2453 44.2854 76.847 39.6393C78.1789 28.7154 78.5142 20.7609 77.8758 9.82117C77.5864 5.16371 73.136 1.06895 68.2011 0.781953C58.5058 0.25617 48.8036 -0.00446123 39.0944 5.92017e-05Z" />
          <path d="M9.99008 0.775168C19.6885 0.258427 29.3899 5.76551e-05 39.0944 5.77997e-05C48.8036 -0.00446263 58.5058 0.256169 68.2011 0.781952C73.136 1.06895 77.5864 5.16371 77.8758 9.82117C78.5142 20.7609 78.1789 28.7154 76.847 39.6393C76.2453 44.2854 71.7215 48.5565 67.007 49.0084C57.7204 49.8491 48.417 50.2686 39.0967 50.2671C29.7765 50.2656 20.4723 49.8461 11.1842 49.0084C6.47202 48.5565 1.94585 44.2832 1.3419 39.6325C0.0100003 28.7086 -0.325271 20.7541 0.313123 9.81438C0.602466 5.16145 5.05516 1.06668 9.99008 0.775168ZM10.2029 4.7695Q24.6441 4.00006 39.0944 4.00006L39.0963 4.00006Q53.5506 3.99333 67.9689 4.77521Q70.2453 4.90759 72.0567 6.59196Q73.7662 8.18148 73.8826 10.0542Q74.7054 24.1543 72.8801 39.1256Q72.6122 41.1944 70.7149 42.9961Q68.7957 44.8186 66.6464 45.0247Q52.8968 46.2694 39.0974 46.2671Q25.2966 46.2649 11.5661 45.0267Q9.39726 44.8187 7.47737 42.9949Q5.57781 41.1904 5.3125 39.1484Q3.48351 24.1475 4.30541 10.0626Q4.42256 8.17876 6.13283 6.58901Q7.94682 4.90284 10.2029 4.7695Z" fill="url(#gradient_10)" fill-rule="evenodd" />
        </g>
        <g transform="matrix(1 0 -0 1 23.598 13.788)">
          <g transform="matrix(1 0 -0 1 0 0)">
            <path d="M1.40368 9.57879C1.40368 9.57879 9.14359 5.70839 9.14359 5.70839C9.85199 5.35415 9.85199 4.33079 9.14359 3.97655C9.14359 3.97655 1.40368 0.106149 1.40368 0.106149C0.760872 -0.221851 0 0.250468 0 0.972068C0 0.972068 0 8.71287 0 8.71287C-9.53674e-07 9.43447 0.760872 9.89367 1.40368 9.57879C1.40368 9.57879 1.40368 9.57879 1.40368 9.57879L1.40368 9.57879Z" fill="#FFFFFF" fill-rule="evenodd" transform="matrix(1 0 -0 1 10.639 6.769)" />
            <path d="M28.0605 7.93066e-07C28.0605 7.93066e-07 2.89919 4.32013e-08 2.89919 4.32013e-08C1.31185 -4.10507e-09 -3.91006e-08 1.312 -8.68034e-08 2.91264C-8.68034e-08 2.91264 -6.04887e-07 20.2966 -6.04887e-07 20.2966C-6.52981e-07 21.9104 1.28561 23.2224 2.89919 23.2224C2.89919 23.2224 28.0736 23.2224 28.0736 23.2224C29.6609 23.2224 30.9728 21.9104 30.9728 20.2966C30.9728 20.2966 30.9728 2.91264 30.9728 2.91264C30.9596 1.312 29.674 8.41154e-07 28.0605 7.93066e-07C28.0605 7.93066e-07 28.0605 7.93066e-07 28.0605 7.93066e-07L28.0605 7.93066e-07ZM5.81153 20.3098C5.81153 20.8477 5.39173 21.2807 4.84076 21.2807C4.84076 21.2807 2.91234 21.2807 2.91234 21.2807C2.37448 21.2807 1.94157 20.8609 1.94157 20.3098C1.94157 20.3098 1.94157 18.3943 1.94157 18.3943C1.94157 17.8564 2.36136 17.4234 2.91234 17.4234C2.91234 17.4234 4.82764 17.4234 4.82764 17.4234C5.3655 17.4234 5.79841 17.8433 5.79841 18.3943C5.79841 18.3943 5.81153 20.3098 5.81153 20.3098L5.81153 20.3098C5.81153 20.3098 5.81153 20.3098 5.81153 20.3098ZM5.81142 12.569C5.81142 13.1069 5.39163 13.5399 4.84065 13.5399C4.84065 13.5399 2.91223 13.5399 2.91223 13.5399C2.37437 13.5399 1.94146 13.12 1.94146 12.569C1.94146 12.569 1.94146 10.6535 1.94146 10.6535C1.94146 10.1156 2.36126 9.68259 2.91223 9.68259C2.91223 9.68259 4.82753 9.68259 4.82753 9.68259C5.36539 9.68259 5.7983 10.1024 5.7983 10.6535C5.7983 10.6535 5.81142 12.569 5.81142 12.569L5.81142 12.569C5.81142 12.569 5.81142 12.569 5.81142 12.569ZM5.81153 4.82822C5.81153 5.36613 5.39173 5.79909 4.84076 5.79909C4.84076 5.79909 2.91234 5.79909 2.91234 5.79909C2.37448 5.79909 1.94157 5.37926 1.94157 4.82822C1.94157 4.82822 1.94157 2.9127 1.94157 2.9127C1.94157 2.37478 2.36136 1.94182 2.91234 1.94182C2.91234 1.94182 4.82764 1.94182 4.82764 1.94182C5.3655 1.94182 5.79841 2.36166 5.79841 2.9127C5.79841 2.9127 5.81153 4.82822 5.81153 4.82822L5.81153 4.82822C5.81153 4.82822 5.81153 4.82822 5.81153 4.82822ZM23.2197 21.2938L7.73985 21.2938L7.73985 1.94182L23.2197 1.94182L23.2197 21.2938L23.2197 21.2938L23.2197 21.2938ZM29.0181 20.3098C29.0181 20.8477 28.5983 21.2807 28.0473 21.2807C28.0473 21.2807 26.132 21.2807 26.132 21.2807C25.5941 21.2807 25.1612 20.8609 25.1612 20.3098C25.1612 20.3098 25.1612 18.3943 25.1612 18.3943C25.1612 17.8564 25.581 17.4234 26.132 17.4234C26.132 17.4234 28.0473 17.4234 28.0473 17.4234C28.5852 17.4234 29.0181 17.8433 29.0181 18.3943C29.0181 18.3943 29.0181 20.3098 29.0181 20.3098L29.0181 20.3098C29.0181 20.3098 29.0181 20.3098 29.0181 20.3098ZM29.0182 12.569C29.0182 13.1069 28.5984 13.5398 28.0474 13.5398C28.0474 13.5398 26.1321 13.5398 26.1321 13.5398C25.5943 13.5398 25.1613 13.12 25.1613 12.569C25.1613 12.569 25.1613 10.6534 25.1613 10.6534C25.1613 10.1155 25.5811 9.68257 26.1321 9.68257C26.1321 9.68257 28.0474 9.68257 28.0474 9.68257C28.5853 9.68257 29.0182 10.1024 29.0182 10.6534C29.0182 10.6534 29.0182 12.569 29.0182 12.569L29.0182 12.569C29.0182 12.569 29.0182 12.569 29.0182 12.569ZM29.0182 4.82822C29.0182 5.36614 28.5984 5.7991 28.0474 5.7991C28.0474 5.7991 26.1321 5.7991 26.1321 5.7991C25.5943 5.7991 25.1613 5.37926 25.1613 4.82822C25.1613 4.82822 25.1613 2.9127 25.1613 2.9127C25.1613 2.37478 25.5811 1.94182 26.1321 1.94182C26.1321 1.94182 28.0474 1.94182 28.0474 1.94182C28.5853 1.94182 29.0182 2.36166 29.0182 2.9127C29.0182 2.9127 29.0182 4.82822 29.0182 4.82822L29.0182 4.82822C29.0182 4.82822 29.0182 4.82822 29.0182 4.82822Z" fill="#FFFFFF" transform="matrix(1 0 -0 1 0 0)" />
          </g>
        </g>
      </g>
      <g transform="translate(70 10)">
        <g fill="url(#gradient_11)" fill-rule="evenodd">
          <path d="M0 85C0 38.0558 40.0705 0 89.5 0C138.929 0 179 38.0558 179 85C179 131.944 138.929 170 89.5 170C40.0705 170 0 131.944 0 85Z" />
          <path d="M89.5 0C40.0705 0 0 38.0558 0 85C0 131.944 40.0705 170 89.5 170C138.929 170 179 131.944 179 85C179 38.0558 138.929 0 89.5 0ZM32.4117 138.578Q9 116.344 9 85Q9 53.6564 32.4117 31.4218Q56.0206 9 89.5 9.00001Q122.979 9 146.588 31.4218Q170 53.6564 170 85Q170 116.344 146.588 138.578Q122.979 161 89.5 161Q56.0206 161 32.4117 138.578Z" fill="#1A1A1A" fill-rule="evenodd" />
        </g>
        <line x1="0" y1="73.097" x2="42.663" y2="0" fill="none" stroke-width="7" stroke="#1A1A1A" stroke-linecap="square" transform="translate(63.387 10.131)" />
        <line x1="0" y1="73.097" x2="42.663" y2="0" fill="none" stroke-width="7" stroke="#1A1A1A" stroke-linecap="square" transform="translate(72.982 85.764)" />
        <g fill="#1A1A1A" fill-rule="evenodd" transform="translate(58.5 59.503)">
          <path d="M15.5 0L46.5 0L62 25.497L46.5 50.9939L15.5 50.9939L0 25.497L15.5 0Z" />
          <path d="M19.4366 7L8.19198 25.497L19.4366 43.9939L42.5635 43.9939L53.8081 25.497L42.5635 7L19.4366 7ZM46.5 0L62 25.497L46.5 50.9939L15.5 50.9939L0 25.497L15.5 0L46.5 0Z" fill="#1A1A1A" fill-rule="evenodd" />
        </g>
        <line x1="0" y1="0.95" x2="88" y2="0.95" fill="none" stroke-width="7" stroke="#1A1A1A" stroke-linecap="square" transform="translate(78 61.732)" />
        <line x1="0" y1="0.95" x2="88" y2="0.95" fill="none" stroke-width="7" stroke="#1A1A1A" stroke-linecap="square" transform="translate(13 106.369)" />
        <line x1="0" y1="0" x2="42.663" y2="73.097" fill="none" stroke-width="7" stroke="#1A1A1A" stroke-linecap="square" transform="translate(104.477 64.627)" />
        <line x1="0" y1="0" x2="42.663" y2="73.097" fill="none" stroke-width="7" stroke="#1A1A1A" stroke-linecap="square" transform="translate(31.858 32.275)" />
      </g>
      <g transform="translate(235 5)">
        <path d="M22.6416 8.96293e-06C13.4851 -0.00117414 5.22956 5.51369 1.72471 13.9729C-1.78014 22.4321 0.155944 32.1697 6.63013 38.6448C13.1043 45.1198 22.8415 47.0572 31.3011 43.5534C39.7607 40.0496 45.2766 31.7947 45.2766 22.6382C45.2766 10.1366 35.143 0.00162229 22.6416 0C22.6416 0 22.6416 8.96293e-06 22.6416 8.96293e-06Z" fill="url(#gradient_12)" fill-rule="evenodd" />
        <path d="M27.7717 1.39619C27.7721 0.965943 27.5739 0.559645 27.2347 0.295051C26.8955 0.0304651 26.4531 -0.0628123 26.036 0.0422602C26.036 0.0422602 10.6199 3.91907 10.6199 3.91907C9.99848 4.07414 9.56247 4.63249 9.56263 5.273C9.56263 5.273 9.56263 21.2766 9.56263 21.2766C8.50816 20.7701 7.35202 20.511 6.18226 20.5188C2.76954 20.5188 0 22.5952 0 25.1533C0 27.7114 2.76954 29.7879 6.18226 29.7879C9.59499 29.7879 12.3498 27.7144 12.3498 25.1533C12.3498 25.1152 12.3498 25.0741 12.3498 25.0359C12.3498 25.0359 12.3498 9.5874 12.3498 9.5874L24.9787 6.41253C24.9787 6.41253 24.9787 17.4027 24.9787 17.4027C23.9224 16.8954 22.7642 16.6362 21.5924 16.645C18.1767 16.645 15.4101 18.7185 15.4101 21.2766C15.4101 23.8347 18.1768 25.9111 21.5924 25.9111C25.0081 25.9111 27.76 23.8376 27.76 21.2766C27.7747 21.2384 27.7717 21.1972 27.7717 21.1591C27.7717 21.1591 27.7717 1.39619 27.7717 1.39619Z" fill="url(#gradient_13)" fill-rule="evenodd" transform="translate(8 8)" />
      </g>
    </g>
    <g transform="translate(0 209)">
      <path d="M34.123 2.83264L34.123 34.5199L28.09 34.5199L28.09 17.9081L28.3796 8.83402L28.2831 8.83402L19.8368 34.5199L14.3346 34.5199L5.84002 8.83402L5.7435 8.83402L6.03308 17.9081L6.03308 34.5199L0 34.5199L0 2.83264L9.70119 2.83264L15.3482 20.4047L17.1822 27.2223L17.2788 27.2223L19.1611 20.4527L24.7598 2.83264L34.123 2.83264ZM50.5434 35C48.0658 35 45.902 34.5119 44.0518 33.5357C42.2016 32.5594 40.7617 31.1351 39.7322 29.2627C38.7026 27.3903 38.1876 25.1418 38.1876 22.5172C38.1876 19.8926 38.7026 17.644 39.7322 15.7716C40.7617 13.8992 42.1775 12.4749 43.9794 11.4986C45.7813 10.5224 47.8566 10.0343 50.2055 10.0343C52.5866 10.0343 54.6217 10.5224 56.3109 11.4986C58.0002 12.4749 59.2953 13.8112 60.1962 15.5076C61.0971 17.2039 61.5476 19.1404 61.5476 21.3169C61.5476 21.893 61.5316 22.4292 61.4994 22.9252C61.4672 23.4214 61.419 23.8455 61.3547 24.1976L42.5314 24.1976L42.5314 20.2606L58.4104 20.2606L55.1767 21.3649C55.1767 19.9886 54.9837 18.8203 54.5976 17.8601C54.2115 16.8999 53.6483 16.1637 52.9083 15.6516C52.1682 15.1395 51.2674 14.8834 50.2055 14.8834C49.015 14.8834 47.9934 15.1715 47.1407 15.7476C46.288 16.3238 45.6445 17.18 45.2101 18.3162C44.7757 19.4525 44.5586 20.8848 44.5586 22.6132C44.5586 24.3096 44.7999 25.7179 45.2825 26.8382C45.7652 27.9584 46.457 28.7906 47.3579 29.3347C48.2589 29.8789 49.3207 30.1509 50.5434 30.1509C51.8626 30.1509 52.9486 29.8708 53.8012 29.3107C54.6539 28.7506 55.3055 27.9744 55.7559 26.9822L61.065 28.9986C60.5824 30.2789 59.8182 31.3672 58.7724 32.2633C57.7267 33.1596 56.4959 33.8398 55.0802 34.3038C53.6645 34.768 52.1522 35 50.5434 35L50.5434 35ZM74.1066 35C72.1763 35 70.4545 34.512 68.9426 33.5357C67.4302 32.5595 66.2474 31.1352 65.3952 29.2627C64.5421 27.3903 64.116 25.1578 64.116 22.5652C64.116 19.9086 64.5588 17.6441 65.4434 15.7716C66.3279 13.8992 67.5428 12.4749 69.0873 11.4987C70.6315 10.5224 72.3852 10.0343 74.3479 10.0343C76.4716 10.0343 78.2091 10.6505 79.5605 11.8827C80.9119 13.115 81.7966 14.7234 82.215 16.7079L81.5392 17.476L81.5392 0.0480219L88.2 0.0480219L88.2 34.52L82.2634 34.52L81.7807 27.0302L82.6011 27.4623C82.3758 28.9987 81.869 30.335 81.0807 31.4713C80.2924 32.6075 79.3031 33.4797 78.1127 34.0878C76.922 34.696 75.5868 35 74.1066 35L74.1066 35ZM76.1822 29.9588C77.2761 29.9588 78.2171 29.6628 79.0055 29.0706C79.7938 28.4785 80.4131 27.6143 80.8638 26.4781C81.3144 25.3418 81.5395 23.9575 81.5395 22.3251C81.5395 20.7887 81.3223 19.4844 80.888 18.4122C80.4536 17.3399 79.8422 16.5158 79.0538 15.9396C78.2654 15.3635 77.3407 15.0754 76.2785 15.0754C74.5733 15.0754 73.2302 15.7076 72.2483 16.9719C71.2675 18.2362 70.7765 20.0846 70.7765 22.5171C70.7765 24.9497 71.2509 26.7981 72.2002 28.0624C73.1497 29.3267 74.4769 29.9588 76.1822 29.9588L76.1822 29.9588ZM100.084 10.5144L100.084 34.5199L93.423 34.5199L93.423 10.5144L100.084 10.5144ZM96.8498 7.15363C95.4339 7.15363 94.3803 6.85758 93.6881 6.26545C92.9966 5.67331 92.6507 4.7691 92.6507 3.55282C92.6507 2.36854 92.9966 1.48034 93.6881 0.888204C94.3803 0.29607 95.4339 1.85623e-06 96.8498 0C98.2654 0 99.311 0.296068 99.9871 0.888204C100.663 1.48034 101 2.36854 101 3.55282C101 4.7691 100.663 5.67331 99.9871 6.26545C99.311 6.85758 98.2654 7.15363 96.8498 7.15363L96.8498 7.15363ZM118.676 19.1564C118.676 17.8121 118.314 16.7479 117.59 15.9637C116.866 15.1795 115.876 14.7874 114.622 14.7874C113.399 14.7874 112.353 15.0915 111.484 15.6996C110.615 16.3077 109.989 17.332 109.602 18.7723L104.003 17.0919C104.518 14.9474 105.693 13.2351 107.527 11.9547C109.361 10.6745 111.838 10.0343 114.959 10.0343C117.083 10.0343 118.917 10.3624 120.461 11.0185C122.006 11.6747 123.205 12.6589 124.057 13.9712C124.91 15.2835 125.336 16.9159 125.336 18.8683L125.336 28.6145C125.336 29.8628 125.899 30.487 127.025 30.487C127.283 30.487 127.549 30.471 127.822 30.439C128.096 30.407 128.329 30.3589 128.522 30.2949L128.136 34.3279C127.749 34.5199 127.299 34.6639 126.784 34.76C126.269 34.856 125.674 34.904 124.998 34.904C123.905 34.904 122.915 34.72 122.03 34.3519C121.145 33.9837 120.454 33.4076 119.955 32.6235C119.456 31.8393 119.207 30.839 119.207 29.6228L119.207 29.2387L120.124 29.0466C119.995 30.3589 119.513 31.4632 118.676 32.3594C117.839 33.2556 116.81 33.9198 115.587 34.3519C114.364 34.784 113.077 35 111.726 35C109.409 35 107.519 34.4399 106.054 33.3196C104.59 32.1994 103.859 30.567 103.859 28.4225C103.859 26.7261 104.39 25.3018 105.452 24.1495C106.513 22.9973 108.138 22.1971 110.326 21.749L119.4 19.8286L119.4 23.7174L113.849 24.8698C112.755 25.0938 111.919 25.4298 111.339 25.8779C110.761 26.326 110.471 26.9822 110.471 27.8464C110.471 28.6786 110.769 29.3187 111.364 29.7668C111.959 30.2149 112.723 30.439 113.657 30.439C114.3 30.439 114.927 30.3509 115.539 30.1749C116.15 29.9989 116.689 29.7108 117.156 29.3107C117.622 28.9107 117.992 28.4145 118.266 27.8224C118.539 27.2302 118.676 26.5181 118.676 25.6859L118.676 19.1564Z" fill="#914DE7" />
      <path d="M0 31.6872L0 0L13.8036 0C17.5364 0 20.2958 0.744169 22.0816 2.23251C23.8674 3.72085 24.7603 5.84135 24.7603 8.59397C24.7603 10.2904 24.2612 11.7947 23.2643 13.107C22.2663 14.4193 20.7707 15.2515 18.7757 15.6036L18.7757 15.6516C20.9637 16.0037 22.6366 16.8599 23.7948 18.2202C24.9538 19.5805 25.5319 21.1889 25.5319 23.0453C25.5319 25.766 24.5836 27.8864 22.6844 29.4067C20.7862 30.9271 18.0034 31.6872 14.3352 31.6872L0 31.6872ZM6.51563 26.7421L13.6108 26.7421C15.2838 26.7421 16.531 26.3741 17.3515 25.6379C18.1716 24.9017 18.5817 23.8615 18.5817 22.5172C18.5817 21.1729 18.1716 20.1486 17.3515 19.4445C16.531 18.7403 15.2838 18.3882 13.6108 18.3882L6.51563 18.3882L6.51563 26.7421ZM6.51572 13.347L12.8385 13.347C14.4798 13.3471 15.7181 13.003 16.5559 12.3148C17.3911 11.6267 17.8096 10.5944 17.8096 9.21811C17.8096 7.8738 17.3911 6.85756 16.5559 6.16941C15.7181 5.48126 14.4798 5.13717 12.8385 5.13717L6.51572 5.13717L6.51572 13.347ZM29.5001 31.6873L29.5001 7.68177L35.3402 7.68177L35.6782 12.5309C36.2572 10.8345 37.1501 9.5222 38.3567 8.59399C39.5635 7.66578 41.0515 7.20166 42.821 7.20166C43.3683 7.20167 43.8589 7.24968 44.2935 7.34571C44.7279 7.44172 45.0899 7.56975 45.3791 7.72979L44.6072 13.2991C44.3496 13.171 43.9878 13.067 43.5209 12.987C43.0545 12.907 42.467 12.867 41.7591 12.867C40.7941 12.867 39.885 13.107 39.0322 13.5871C38.1799 14.0672 37.4881 14.7794 36.9572 15.7236C36.4261 16.6678 36.1608 17.8441 36.1608 19.2524L36.1608 31.6873L29.5001 31.6873ZM57.6978 7.20166C60.0785 7.20167 62.1867 7.69779 64.0207 8.69001C65.8548 9.68223 67.295 11.1066 68.3406 12.963C69.3861 14.8194 69.9078 17.0599 69.9078 19.6845C69.9078 22.3091 69.3861 24.5496 68.3406 26.4061C67.295 28.2624 65.8548 29.6868 64.0207 30.679C62.1867 31.6713 60.0785 32.1674 57.6978 32.1674C55.3157 32.1674 53.2088 31.6713 51.3745 30.679C49.5402 29.6868 48.1091 28.2624 47.0793 26.4061C46.0493 24.5496 45.5343 22.3091 45.5343 19.6845C45.5343 17.0599 46.0493 14.8194 47.0793 12.963C48.1091 11.1066 49.5402 9.68223 51.3745 8.69001C53.2088 7.69779 55.3157 7.20167 57.6978 7.20166L57.6978 7.20166ZM57.697 12.0988C56.5706 12.0988 55.5971 12.3788 54.7774 12.939C53.9559 13.4991 53.3286 14.3393 52.8952 15.4595C52.461 16.5798 52.2431 17.9881 52.2431 19.6845C52.2431 21.3809 52.461 22.7892 52.8952 23.9095C53.3286 25.0298 53.9559 25.87 54.7774 26.4301C55.5971 26.9902 56.5706 27.2702 57.697 27.2702C58.856 27.2702 59.8368 26.9902 60.6418 26.4301C61.446 25.87 62.0728 25.0217 62.5241 23.8855C62.9735 22.7492 63.1992 21.3489 63.1992 19.6845C63.1992 17.9881 62.9735 16.5798 62.5241 15.4595C62.0728 14.3393 61.446 13.4991 60.6418 12.939C59.8368 12.3788 58.856 12.0988 57.697 12.0988L57.697 12.0988ZM103.752 7.68177L110.798 7.68177L103.27 31.6872L95.4991 31.6872L90.383 15.3635L85.4114 31.6872L77.6884 31.6872L70.1113 7.68177L77.2065 7.68177L81.8879 26.118L87.1971 7.68177L93.7612 7.68177L99.0223 26.118L103.752 7.68177ZM122.054 32.1674C119.705 32.1674 117.549 31.7432 115.588 30.8951C113.625 30.0469 112.017 28.8226 110.76 27.2222L114.284 23.4774C115.025 24.6937 116.062 25.6699 117.396 26.4061C118.733 27.1422 120.237 27.5103 121.909 27.5103C123.069 27.5103 124.025 27.2942 124.781 26.8622C125.536 26.4301 125.914 25.8299 125.914 25.0617C125.914 24.5176 125.739 24.0535 125.385 23.6694C125.031 23.2854 124.322 22.9813 123.261 22.7572L119.304 21.9411C116.537 21.3329 114.573 20.4527 113.415 19.3004C112.257 18.1482 111.678 16.6438 111.678 14.7874C111.678 13.4751 112.072 12.2508 112.861 11.1146C113.648 9.9783 114.822 9.04208 116.384 8.30591C117.945 7.56975 119.868 7.20167 122.15 7.20166C124.532 7.20167 126.6 7.60176 128.352 8.40194C130.106 9.20212 131.465 10.3224 132.432 11.7627L128.908 15.3635C128.233 14.2113 127.292 13.3391 126.085 12.7469C124.877 12.1548 123.662 11.8587 122.44 11.8587C121.539 11.8587 120.783 11.9628 120.171 12.1708C119.56 12.3788 119.093 12.6669 118.771 13.035C118.451 13.4031 118.289 13.8432 118.289 14.3553C118.289 14.8994 118.515 15.3795 118.965 15.7956C119.416 16.2117 120.188 16.5318 121.283 16.7559L126.059 17.7161C128.408 18.1962 130.09 18.9963 131.105 20.1166C132.117 21.2369 132.624 22.5972 132.624 24.1975C132.624 26.5021 131.724 28.4065 129.922 29.9109C128.119 31.4152 125.497 32.1674 122.054 32.1674L122.054 32.1674ZM147.115 32.1674C144.636 32.1674 142.472 31.6793 140.624 30.703C138.772 29.7268 137.333 28.3024 136.304 26.4301C135.273 24.5576 134.758 22.3091 134.758 19.6845C134.758 17.0599 135.273 14.8114 136.304 12.939C137.333 11.0666 138.749 9.64222 140.549 8.666C142.354 7.68978 144.429 7.20167 146.778 7.20166C149.159 7.20167 151.194 7.68978 152.884 8.666C154.573 9.64222 155.867 10.9785 156.769 12.6749C157.671 14.3713 158.118 16.3077 158.118 18.4842C158.118 19.0604 158.104 19.5965 158.071 20.0926C158.04 20.5887 157.992 21.0128 157.926 21.3649L139.102 21.3649L139.102 17.428L154.983 17.428L151.75 18.5322C151.75 17.1559 151.556 15.9877 151.169 15.0275C150.783 14.0672 150.22 13.3311 149.479 12.8189C148.741 12.3068 147.839 12.0508 146.778 12.0508C145.586 12.0508 144.566 12.3388 143.713 12.915C142.859 13.4911 142.217 14.3473 141.781 15.4836C141.346 16.6198 141.131 18.0522 141.131 19.7805C141.131 21.4769 141.372 22.8853 141.854 24.0055C142.335 25.1258 143.028 25.9579 143.928 26.5021C144.829 27.0462 145.892 27.3183 147.115 27.3183C148.434 27.3183 149.52 27.0382 150.372 26.4781C151.226 25.9179 151.877 25.1418 152.329 24.1496L157.638 26.166C157.156 27.4463 156.391 28.5346 155.343 29.4307C154.3 30.327 153.069 31.0071 151.653 31.4712C150.236 31.9353 148.723 32.1674 147.115 32.1674L147.115 32.1674ZM161.894 31.6873L161.894 7.68177L167.733 7.68177L168.072 12.5309C168.651 10.8345 169.544 9.5222 170.751 8.59399C171.957 7.66578 173.445 7.20166 175.215 7.20166C175.761 7.20167 176.254 7.24968 176.687 7.34571C177.12 7.44172 177.484 7.56975 177.773 7.72979L177.001 13.2991C176.743 13.171 176.38 13.067 175.914 12.987C175.448 12.907 174.861 12.867 174.153 12.867C173.187 12.867 172.278 13.107 171.426 13.5871C170.574 14.0672 169.882 14.7794 169.351 15.7236C168.819 16.6678 168.555 17.8441 168.555 19.2524L168.555 31.6873L161.894 31.6873Z" fill="url(#gradient_14)" transform="translate(140.228 2.833)" />
    </g>
  </g>
</svg>