<?xml version="1.0" encoding="utf-8"?>
<svg width="318" height="35" viewBox="0 0 318 35" fill="none" xmlns="http://www.w3.org/2000/svg">
  <defs>
    <linearGradient id="gradient_1" gradientUnits="userSpaceOnUse" x1="88.886" y1="0" x2="88.886" y2="32.167">
      <stop offset="0" stop-color="#65D7FF" />
      <stop offset="1" stop-color="#0088FF" />
    </linearGradient>
  </defs>
  <g>
    <path d="M34.123 2.83264L34.123 34.5199L28.09 34.5199L28.09 17.9081L28.3796 8.83402L28.2831 8.83402L19.8368 34.5199L14.3346 34.5199L5.84002 8.83402L5.7435 8.83402L6.03308 17.9081L6.03308 34.5199L0 34.5199L0 2.83264L9.70119 2.83264L15.3482 20.4047L17.1822 27.2223L17.2788 27.2223L19.1611 20.4527L24.7598 2.83264L34.123 2.83264ZM50.5434 35C48.0658 35 45.902 34.5119 44.0518 33.5357C42.2016 32.5594 40.7617 31.1351 39.7322 29.2627C38.7026 27.3903 38.1876 25.1418 38.1876 22.5172C38.1876 19.8926 38.7026 17.644 39.7322 15.7716C40.7617 13.8992 42.1775 12.4749 43.9794 11.4986C45.7813 10.5224 47.8566 10.0343 50.2055 10.0343C52.5866 10.0343 54.6217 10.5224 56.3109 11.4986C58.0002 12.4749 59.2953 13.8112 60.1962 15.5076C61.0971 17.2039 61.5476 19.1404 61.5476 21.3169C61.5476 21.893 61.5316 22.4292 61.4994 22.9252C61.4672 23.4214 61.419 23.8455 61.3547 24.1976L42.5314 24.1976L42.5314 20.2606L58.4104 20.2606L55.1767 21.3649C55.1767 19.9886 54.9837 18.8203 54.5976 17.8601C54.2115 16.8999 53.6483 16.1637 52.9083 15.6516C52.1682 15.1395 51.2674 14.8834 50.2055 14.8834C49.015 14.8834 47.9934 15.1715 47.1407 15.7476C46.288 16.3238 45.6445 17.18 45.2101 18.3162C44.7757 19.4525 44.5586 20.8848 44.5586 22.6132C44.5586 24.3096 44.7999 25.7179 45.2825 26.8382C45.7652 27.9584 46.457 28.7906 47.3579 29.3347C48.2589 29.8789 49.3207 30.1509 50.5434 30.1509C51.8626 30.1509 52.9486 29.8708 53.8012 29.3107C54.6539 28.7506 55.3055 27.9744 55.7559 26.9822L61.065 28.9986C60.5824 30.2789 59.8182 31.3672 58.7724 32.2633C57.7267 33.1596 56.4959 33.8398 55.0802 34.3038C53.6645 34.768 52.1522 35 50.5434 35L50.5434 35ZM74.1066 35C72.1763 35 70.4545 34.512 68.9426 33.5357C67.4302 32.5595 66.2474 31.1352 65.3952 29.2627C64.5421 27.3903 64.116 25.1578 64.116 22.5652C64.116 19.9086 64.5588 17.6441 65.4434 15.7716C66.3279 13.8992 67.5428 12.4749 69.0873 11.4987C70.6315 10.5224 72.3852 10.0343 74.3479 10.0343C76.4716 10.0343 78.2091 10.6505 79.5605 11.8827C80.9119 13.115 81.7966 14.7234 82.215 16.7079L81.5392 17.476L81.5392 0.0480219L88.2 0.0480219L88.2 34.52L82.2634 34.52L81.7807 27.0302L82.6011 27.4623C82.3758 28.9987 81.869 30.335 81.0807 31.4713C80.2924 32.6075 79.3031 33.4797 78.1127 34.0878C76.922 34.696 75.5868 35 74.1066 35L74.1066 35ZM76.1822 29.9588C77.2761 29.9588 78.2171 29.6628 79.0055 29.0706C79.7938 28.4785 80.4131 27.6143 80.8638 26.4781C81.3144 25.3418 81.5395 23.9575 81.5395 22.3251C81.5395 20.7887 81.3223 19.4844 80.888 18.4122C80.4536 17.3399 79.8422 16.5158 79.0538 15.9396C78.2654 15.3635 77.3407 15.0754 76.2785 15.0754C74.5733 15.0754 73.2302 15.7076 72.2483 16.9719C71.2675 18.2362 70.7765 20.0846 70.7765 22.5171C70.7765 24.9497 71.2509 26.7981 72.2002 28.0624C73.1497 29.3267 74.4769 29.9588 76.1822 29.9588L76.1822 29.9588ZM100.084 10.5144L100.084 34.5199L93.423 34.5199L93.423 10.5144L100.084 10.5144ZM96.8498 7.15363C95.4339 7.15363 94.3803 6.85758 93.6881 6.26545C92.9966 5.67331 92.6507 4.7691 92.6507 3.55282C92.6507 2.36854 92.9966 1.48034 93.6881 0.888204C94.3803 0.29607 95.4339 1.85623e-06 96.8498 0C98.2654 0 99.311 0.296068 99.9871 0.888204C100.663 1.48034 101 2.36854 101 3.55282C101 4.7691 100.663 5.67331 99.9871 6.26545C99.311 6.85758 98.2654 7.15363 96.8498 7.15363L96.8498 7.15363ZM118.676 19.1564C118.676 17.8121 118.314 16.7479 117.59 15.9637C116.866 15.1795 115.876 14.7874 114.622 14.7874C113.399 14.7874 112.353 15.0915 111.484 15.6996C110.615 16.3077 109.989 17.332 109.602 18.7723L104.003 17.0919C104.518 14.9474 105.693 13.2351 107.527 11.9547C109.361 10.6745 111.838 10.0343 114.959 10.0343C117.083 10.0343 118.917 10.3624 120.461 11.0185C122.006 11.6747 123.205 12.6589 124.057 13.9712C124.91 15.2835 125.336 16.9159 125.336 18.8683L125.336 28.6145C125.336 29.8628 125.899 30.487 127.025 30.487C127.283 30.487 127.549 30.471 127.822 30.439C128.096 30.407 128.329 30.3589 128.522 30.2949L128.136 34.3279C127.749 34.5199 127.299 34.6639 126.784 34.76C126.269 34.856 125.674 34.904 124.998 34.904C123.905 34.904 122.915 34.72 122.03 34.3519C121.145 33.9837 120.454 33.4076 119.955 32.6235C119.456 31.8393 119.207 30.839 119.207 29.6228L119.207 29.2387L120.124 29.0466C119.995 30.3589 119.513 31.4632 118.676 32.3594C117.839 33.2556 116.81 33.9198 115.587 34.3519C114.364 34.784 113.077 35 111.726 35C109.409 35 107.519 34.4399 106.054 33.3196C104.59 32.1994 103.859 30.567 103.859 28.4225C103.859 26.7261 104.39 25.3018 105.452 24.1495C106.513 22.9973 108.138 22.1971 110.326 21.749L119.4 19.8286L119.4 23.7174L113.849 24.8698C112.755 25.0938 111.919 25.4298 111.339 25.8779C110.761 26.326 110.471 26.9822 110.471 27.8464C110.471 28.6786 110.769 29.3187 111.364 29.7668C111.959 30.2149 112.723 30.439 113.657 30.439C114.3 30.439 114.927 30.3509 115.539 30.1749C116.15 29.9989 116.689 29.7108 117.156 29.3107C117.622 28.9107 117.992 28.4145 118.266 27.8224C118.539 27.2302 118.676 26.5181 118.676 25.6859L118.676 19.1564Z" fill="#914DE7" />
    <path d="M0 31.6872L0 0L13.8036 0C17.5364 0 20.2958 0.744169 22.0816 2.23251C23.8674 3.72085 24.7603 5.84135 24.7603 8.59397C24.7603 10.2904 24.2612 11.7947 23.2643 13.107C22.2663 14.4193 20.7707 15.2515 18.7757 15.6036L18.7757 15.6516C20.9637 16.0037 22.6366 16.8599 23.7948 18.2202C24.9538 19.5805 25.5319 21.1889 25.5319 23.0453C25.5319 25.766 24.5836 27.8864 22.6844 29.4067C20.7862 30.9271 18.0034 31.6872 14.3352 31.6872L0 31.6872ZM6.51563 26.7421L13.6108 26.7421C15.2838 26.7421 16.531 26.3741 17.3515 25.6379C18.1716 24.9017 18.5817 23.8615 18.5817 22.5172C18.5817 21.1729 18.1716 20.1486 17.3515 19.4445C16.531 18.7403 15.2838 18.3882 13.6108 18.3882L6.51563 18.3882L6.51563 26.7421ZM6.51572 13.347L12.8385 13.347C14.4798 13.3471 15.7181 13.003 16.5559 12.3148C17.3911 11.6267 17.8096 10.5944 17.8096 9.21811C17.8096 7.8738 17.3911 6.85756 16.5559 6.16941C15.7181 5.48126 14.4798 5.13717 12.8385 5.13717L6.51572 5.13717L6.51572 13.347ZM29.5001 31.6873L29.5001 7.68177L35.3402 7.68177L35.6782 12.5309C36.2572 10.8345 37.1501 9.5222 38.3567 8.59399C39.5635 7.66578 41.0515 7.20166 42.821 7.20166C43.3683 7.20167 43.8589 7.24968 44.2935 7.34571C44.7279 7.44172 45.0899 7.56975 45.3791 7.72979L44.6072 13.2991C44.3496 13.171 43.9878 13.067 43.5209 12.987C43.0545 12.907 42.467 12.867 41.7591 12.867C40.7941 12.867 39.885 13.107 39.0322 13.5871C38.1799 14.0672 37.4881 14.7794 36.9572 15.7236C36.4261 16.6678 36.1608 17.8441 36.1608 19.2524L36.1608 31.6873L29.5001 31.6873ZM57.6978 7.20166C60.0785 7.20167 62.1867 7.69779 64.0207 8.69001C65.8548 9.68223 67.295 11.1066 68.3406 12.963C69.3861 14.8194 69.9078 17.0599 69.9078 19.6845C69.9078 22.3091 69.3861 24.5496 68.3406 26.4061C67.295 28.2624 65.8548 29.6868 64.0207 30.679C62.1867 31.6713 60.0785 32.1674 57.6978 32.1674C55.3157 32.1674 53.2088 31.6713 51.3745 30.679C49.5402 29.6868 48.1091 28.2624 47.0793 26.4061C46.0493 24.5496 45.5343 22.3091 45.5343 19.6845C45.5343 17.0599 46.0493 14.8194 47.0793 12.963C48.1091 11.1066 49.5402 9.68223 51.3745 8.69001C53.2088 7.69779 55.3157 7.20167 57.6978 7.20166L57.6978 7.20166ZM57.697 12.0988C56.5706 12.0988 55.5971 12.3788 54.7774 12.939C53.9559 13.4991 53.3286 14.3393 52.8952 15.4595C52.461 16.5798 52.2431 17.9881 52.2431 19.6845C52.2431 21.3809 52.461 22.7892 52.8952 23.9095C53.3286 25.0298 53.9559 25.87 54.7774 26.4301C55.5971 26.9902 56.5706 27.2702 57.697 27.2702C58.856 27.2702 59.8368 26.9902 60.6418 26.4301C61.446 25.87 62.0728 25.0217 62.5241 23.8855C62.9735 22.7492 63.1992 21.3489 63.1992 19.6845C63.1992 17.9881 62.9735 16.5798 62.5241 15.4595C62.0728 14.3393 61.446 13.4991 60.6418 12.939C59.8368 12.3788 58.856 12.0988 57.697 12.0988L57.697 12.0988ZM103.752 7.68177L110.798 7.68177L103.27 31.6872L95.4991 31.6872L90.383 15.3635L85.4114 31.6872L77.6884 31.6872L70.1113 7.68177L77.2065 7.68177L81.8879 26.118L87.1971 7.68177L93.7612 7.68177L99.0223 26.118L103.752 7.68177ZM122.054 32.1674C119.705 32.1674 117.549 31.7432 115.588 30.8951C113.625 30.0469 112.017 28.8226 110.76 27.2222L114.284 23.4774C115.025 24.6937 116.062 25.6699 117.396 26.4061C118.733 27.1422 120.237 27.5103 121.909 27.5103C123.069 27.5103 124.025 27.2942 124.781 26.8622C125.536 26.4301 125.914 25.8299 125.914 25.0617C125.914 24.5176 125.739 24.0535 125.385 23.6694C125.031 23.2854 124.322 22.9813 123.261 22.7572L119.304 21.9411C116.537 21.3329 114.573 20.4527 113.415 19.3004C112.257 18.1482 111.678 16.6438 111.678 14.7874C111.678 13.4751 112.072 12.2508 112.861 11.1146C113.648 9.9783 114.822 9.04208 116.384 8.30591C117.945 7.56975 119.868 7.20167 122.15 7.20166C124.532 7.20167 126.6 7.60176 128.352 8.40194C130.106 9.20212 131.465 10.3224 132.432 11.7627L128.908 15.3635C128.233 14.2113 127.292 13.3391 126.085 12.7469C124.877 12.1548 123.662 11.8587 122.44 11.8587C121.539 11.8587 120.783 11.9628 120.171 12.1708C119.56 12.3788 119.093 12.6669 118.771 13.035C118.451 13.4031 118.289 13.8432 118.289 14.3553C118.289 14.8994 118.515 15.3795 118.965 15.7956C119.416 16.2117 120.188 16.5318 121.283 16.7559L126.059 17.7161C128.408 18.1962 130.09 18.9963 131.105 20.1166C132.117 21.2369 132.624 22.5972 132.624 24.1975C132.624 26.5021 131.724 28.4065 129.922 29.9109C128.119 31.4152 125.497 32.1674 122.054 32.1674L122.054 32.1674ZM147.115 32.1674C144.636 32.1674 142.472 31.6793 140.624 30.703C138.772 29.7268 137.333 28.3024 136.304 26.4301C135.273 24.5576 134.758 22.3091 134.758 19.6845C134.758 17.0599 135.273 14.8114 136.304 12.939C137.333 11.0666 138.749 9.64222 140.549 8.666C142.354 7.68978 144.429 7.20167 146.778 7.20166C149.159 7.20167 151.194 7.68978 152.884 8.666C154.573 9.64222 155.867 10.9785 156.769 12.6749C157.671 14.3713 158.118 16.3077 158.118 18.4842C158.118 19.0604 158.104 19.5965 158.071 20.0926C158.04 20.5887 157.992 21.0128 157.926 21.3649L139.102 21.3649L139.102 17.428L154.983 17.428L151.75 18.5322C151.75 17.1559 151.556 15.9877 151.169 15.0275C150.783 14.0672 150.22 13.3311 149.479 12.8189C148.741 12.3068 147.839 12.0508 146.778 12.0508C145.586 12.0508 144.566 12.3388 143.713 12.915C142.859 13.4911 142.217 14.3473 141.781 15.4836C141.346 16.6198 141.131 18.0522 141.131 19.7805C141.131 21.4769 141.372 22.8853 141.854 24.0055C142.335 25.1258 143.028 25.9579 143.928 26.5021C144.829 27.0462 145.892 27.3183 147.115 27.3183C148.434 27.3183 149.52 27.0382 150.372 26.4781C151.226 25.9179 151.877 25.1418 152.329 24.1496L157.638 26.166C157.156 27.4463 156.391 28.5346 155.343 29.4307C154.3 30.327 153.069 31.0071 151.653 31.4712C150.236 31.9353 148.723 32.1674 147.115 32.1674L147.115 32.1674ZM161.894 31.6873L161.894 7.68177L167.733 7.68177L168.072 12.5309C168.651 10.8345 169.544 9.5222 170.751 8.59399C171.957 7.66578 173.445 7.20166 175.215 7.20166C175.761 7.20167 176.254 7.24968 176.687 7.34571C177.12 7.44172 177.484 7.56975 177.773 7.72979L177.001 13.2991C176.743 13.171 176.38 13.067 175.914 12.987C175.448 12.907 174.861 12.867 174.153 12.867C173.187 12.867 172.278 13.107 171.426 13.5871C170.574 14.0672 169.882 14.7794 169.351 15.7236C168.819 16.6678 168.555 17.8441 168.555 19.2524L168.555 31.6873L161.894 31.6873Z" fill="url(#gradient_1)" transform="translate(140.228 2.833)" />
  </g>
</svg>